<svg id="svg" version="1.1" xmlns="http://www.w3.org/2000/svg" xmlns:xlink="http://www.w3.org/1999/xlink" width="400" height="472.99864314789687" viewBox="0, 0, 400,472.99864314789687"><g id="svgg"><path id="path0" d="M200.036 34.056 C 199.990 34.138,199.618 34.825,199.210 35.584 C 198.803 36.343,198.226 37.408,197.928 37.950 C 197.416 38.882,196.203 41.167,194.579 44.258 C 192.730 47.777,191.742 49.628,191.422 50.172 C 191.072 50.769,190.263 52.280,188.364 55.890 C 187.248 58.009,186.493 59.425,185.314 61.607 C 184.904 62.366,184.171 63.741,183.685 64.662 C 183.199 65.584,182.627 66.649,182.413 67.028 C 182.199 67.408,181.508 68.694,180.877 69.887 C 180.246 71.079,179.467 72.543,179.146 73.139 C 178.826 73.736,178.189 74.933,177.731 75.801 C 175.838 79.387,174.997 80.958,174.669 81.518 C 174.288 82.168,172.806 84.959,171.215 88.024 C 170.652 89.108,169.970 90.394,169.700 90.882 C 169.069 92.023,167.866 94.254,166.671 96.501 C 166.151 97.477,165.388 98.896,164.975 99.655 C 164.562 100.414,163.926 101.612,163.563 102.316 C 163.200 103.021,162.590 104.174,162.207 104.879 C 161.095 106.927,159.900 109.172,158.849 111.188 C 157.792 113.217,157.405 113.751,156.989 113.751 C 156.629 113.751,149.384 116.350,147.955 116.992 C 147.629 117.138,147.141 117.347,146.870 117.456 C 146.599 117.565,145.957 117.840,145.443 118.068 C 144.929 118.296,144.470 118.482,144.423 118.482 C 144.253 118.482,141.202 119.917,138.098 121.457 C 135.157 122.916,133.964 123.546,131.986 124.686 C 131.552 124.935,130.887 125.315,130.508 125.530 C 128.489 126.670,127.248 127.439,127.189 127.584 C 127.153 127.674,127.041 127.748,126.940 127.748 C 126.622 127.748,117.856 133.598,117.496 134.050 C 117.442 134.118,117.087 134.386,116.708 134.645 C 116.328 134.903,115.747 135.343,115.416 135.621 C 115.084 135.899,114.513 136.348,114.145 136.619 C 113.777 136.890,113.205 137.342,112.874 137.622 C 112.543 137.903,112.063 138.302,111.806 138.509 C 111.550 138.717,111.240 138.976,111.116 139.085 C 110.993 139.195,110.363 139.727,109.717 140.268 C 104.195 144.892,95.974 153.345,92.007 158.479 C 91.704 158.871,91.304 159.371,91.120 159.590 C 90.935 159.809,90.522 160.341,90.203 160.773 C 89.883 161.204,89.572 161.602,89.512 161.656 C 89.177 161.956,87.137 164.830,87.137 165.001 C 87.137 165.113,87.068 165.205,86.983 165.205 C 86.899 165.205,86.256 166.068,85.554 167.123 C 84.852 168.179,84.211 169.132,84.128 169.242 C 82.346 171.627,77.377 180.332,75.179 184.919 C 73.810 187.775,72.745 190.074,72.745 190.170 C 72.745 190.218,72.425 190.985,72.033 191.876 C 71.225 193.711,71.172 193.841,70.573 195.466 C 70.334 196.116,70.022 196.915,69.881 197.240 C 69.581 197.934,67.252 204.830,67.002 205.766 C 66.908 206.119,66.748 206.695,66.647 207.048 C 66.278 208.337,65.659 210.687,65.258 212.321 C 65.032 213.243,64.767 214.308,64.671 214.687 C 64.574 215.067,64.391 215.909,64.265 216.560 C 64.139 217.210,63.916 218.275,63.769 218.926 C 63.240 221.270,62.534 225.914,62.107 229.867 C 61.310 237.239,61.271 237.965,61.268 245.638 C 61.265 253.999,61.394 256.024,62.505 265.007 C 62.778 267.212,63.313 270.423,63.794 272.745 C 63.951 273.504,64.171 274.569,64.282 275.111 C 64.695 277.122,65.076 278.721,65.551 280.434 C 66.643 284.373,66.690 283.879,64.921 287.038 C 64.587 287.634,63.872 288.965,63.331 289.995 C 62.790 291.025,62.125 292.267,61.853 292.755 C 61.581 293.243,60.870 294.574,60.274 295.712 C 58.405 299.280,57.532 300.916,57.173 301.528 C 56.852 302.075,55.797 304.052,54.017 307.442 C 52.618 310.108,51.405 312.376,51.065 312.962 C 50.876 313.287,50.160 314.618,49.474 315.919 C 48.788 317.220,47.895 318.906,47.490 319.665 C 47.085 320.424,46.450 321.621,46.079 322.326 C 45.708 323.031,45.092 324.184,44.710 324.889 C 44.328 325.594,43.591 326.969,43.071 327.945 C 41.252 331.361,41.071 331.699,40.475 332.775 C 39.867 333.874,38.594 336.273,36.814 339.675 C 36.275 340.705,35.566 342.035,35.240 342.632 C 34.320 344.311,33.449 345.927,32.477 347.758 C 31.988 348.679,31.256 350.054,30.851 350.813 C 30.446 351.572,29.694 352.992,29.180 353.967 C 28.666 354.943,28.025 356.141,27.755 356.629 C 27.486 357.117,26.863 358.270,26.371 359.192 C 25.879 360.113,25.144 361.488,24.738 362.247 C 24.332 363.006,23.558 364.470,23.018 365.500 C 22.037 367.370,21.573 368.237,19.843 371.434 C 19.338 372.367,18.926 373.188,18.926 373.258 C 18.926 373.328,37.142 373.386,59.406 373.386 L 99.886 373.386 100.728 371.759 C 101.191 370.865,101.920 369.475,102.347 368.672 C 103.029 367.388,103.709 366.124,106.808 360.375 C 107.188 359.670,107.966 358.206,108.537 357.122 C 109.932 354.472,110.490 353.442,110.804 352.939 L 111.068 352.517 111.670 352.941 C 112.001 353.174,112.449 353.532,112.666 353.736 C 112.883 353.940,113.371 354.341,113.751 354.627 C 114.130 354.914,114.485 355.198,114.539 355.258 C 114.593 355.319,114.991 355.630,115.422 355.949 C 115.854 356.269,116.342 356.635,116.507 356.763 C 124.013 362.579,136.316 369.770,144.603 373.184 C 144.820 373.274,145.397 373.518,145.885 373.728 C 146.632 374.049,148.245 374.701,149.926 375.361 C 150.143 375.446,150.853 375.710,151.503 375.947 C 152.154 376.184,152.905 376.466,153.173 376.573 C 153.957 376.888,157.425 378.018,159.980 378.792 C 163.278 379.791,163.320 379.803,165.303 380.273 C 166.279 380.504,167.521 380.818,168.063 380.969 C 169.011 381.234,171.894 381.832,174.372 382.277 C 175.022 382.394,176.175 382.608,176.934 382.754 C 180.460 383.429,184.786 383.905,192.121 384.426 C 200.908 385.051,214.726 384.296,223.263 382.725 C 227.944 381.863,230.823 381.281,231.937 380.969 C 232.479 380.818,233.721 380.504,234.697 380.273 C 236.680 379.803,236.722 379.791,240.020 378.792 C 249.524 375.913,257.181 372.726,266.240 367.880 C 271.066 365.298,279.494 359.952,282.285 357.702 C 282.459 357.561,283.219 356.980,283.973 356.410 C 284.726 355.841,285.480 355.262,285.648 355.124 C 285.816 354.986,286.575 354.375,287.334 353.766 C 288.093 353.157,288.935 352.407,289.207 352.100 C 289.478 351.793,290.498 350.854,291.474 350.014 C 310.461 333.669,325.038 311.035,332.793 285.855 C 333.144 284.717,333.500 283.652,333.585 283.489 C 333.939 282.811,334.953 278.822,335.739 275.012 C 335.862 274.416,336.080 273.396,336.223 272.745 C 336.365 272.095,336.583 270.941,336.706 270.182 C 336.829 269.423,337.011 268.314,337.111 267.718 C 337.433 265.801,337.954 261.403,338.408 256.777 C 338.654 254.269,338.736 251.464,338.733 245.638 C 338.729 237.967,338.691 237.242,337.893 229.867 C 337.466 225.914,336.760 221.270,336.231 218.926 C 336.084 218.275,335.859 217.210,335.731 216.560 C 335.242 214.073,334.157 209.677,333.566 207.787 C 333.481 207.516,333.314 206.939,333.194 206.506 C 332.727 204.822,332.149 202.935,331.954 202.464 C 331.842 202.193,331.410 200.942,330.995 199.684 C 330.580 198.426,329.958 196.696,329.613 195.840 C 329.268 194.983,328.917 194.105,328.833 193.889 C 328.748 193.672,328.359 192.766,327.967 191.876 C 327.575 190.985,327.255 190.218,327.255 190.170 C 327.255 189.856,323.254 181.677,322.034 179.497 C 321.670 178.847,321.134 177.877,320.843 177.343 C 319.785 175.400,316.682 170.345,315.870 169.242 C 315.789 169.132,315.148 168.179,314.446 167.123 C 313.744 166.068,313.101 165.205,313.017 165.205 C 312.932 165.205,312.863 165.113,312.863 165.001 C 312.863 164.836,311.539 162.963,310.361 161.463 C 303.663 152.929,296.961 145.855,290.282 140.271 C 289.636 139.731,289.064 139.239,289.009 139.179 C 288.916 139.075,286.180 136.859,284.672 135.667 C 284.293 135.367,283.672 134.908,283.292 134.648 C 282.913 134.387,282.558 134.117,282.504 134.049 C 282.144 133.592,273.387 127.748,273.063 127.748 C 272.961 127.748,272.847 127.674,272.811 127.584 C 272.775 127.493,272.080 127.029,271.267 126.551 C 270.453 126.073,269.637 125.593,269.453 125.483 C 269.269 125.373,268.693 125.050,268.172 124.764 C 267.651 124.478,266.737 123.969,266.141 123.633 C 264.889 122.926,258.917 119.958,257.171 119.175 C 255.731 118.530,254.754 118.106,254.165 117.870 C 253.511 117.610,252.950 117.372,251.848 116.888 C 251.306 116.650,250.641 116.387,250.370 116.303 C 250.099 116.220,249.123 115.870,248.201 115.526 C 244.473 114.135,243.355 113.753,243.013 113.752 C 242.817 113.751,241.470 113.396,240.021 112.962 C 228.524 109.523,218.072 107.789,205.371 107.214 L 200.097 106.975 200.147 70.442 C 200.174 50.348,200.180 33.908,200.159 33.908 C 200.139 33.908,200.083 33.975,200.036 34.056 M207.655 127.943 C 213.105 128.385,215.507 128.673,220.798 129.517 C 245.254 133.419,271.132 147.791,287.895 166.782 C 288.995 168.029,289.947 169.093,290.008 169.147 C 290.306 169.408,293.785 173.806,295.228 175.747 C 297.642 178.993,300.945 184.107,303.457 188.491 C 306.136 193.166,310.380 202.801,312.173 208.280 C 314.632 215.796,316.240 222.809,317.214 230.261 C 318.433 239.594,318.503 251.789,317.386 260.030 C 316.511 266.478,316.016 269.194,314.803 274.224 C 314.045 277.361,312.035 283.857,310.746 287.334 C 308.613 293.083,304.482 301.593,301.463 306.456 C 301.127 306.999,300.703 307.708,300.523 308.034 C 295.743 316.633,284.496 329.389,274.519 337.527 C 259.545 349.742,238.972 359.202,221.390 361.958 C 220.793 362.052,219.507 362.261,218.531 362.423 C 158.884 372.328,99.778 332.943,85.577 273.829 C 83.989 267.222,83.395 263.664,82.566 255.791 C 82.234 252.644,82.231 239.066,82.562 235.880 C 83.393 227.861,84.379 222.035,85.881 216.264 C 97.298 172.399,134.137 137.703,177.575 129.905 C 178.144 129.803,179.120 129.627,179.744 129.514 C 183.331 128.867,186.995 128.417,192.410 127.959 C 195.154 127.728,204.875 127.717,207.655 127.943 M209.271 163.744 L 206.319 164.012 189.425 180.905 L 172.532 197.798 168.100 193.379 C 165.662 190.949,162.561 187.864,161.209 186.524 L 158.750 184.088 156.556 186.282 C 155.349 187.489,154.362 188.540,154.362 188.619 C 154.362 188.697,157.932 192.332,162.296 196.697 L 170.230 204.633 161.065 213.800 L 151.900 222.967 146.179 217.249 L 140.459 211.531 138.196 213.800 L 135.933 216.070 140.514 220.651 L 145.096 225.233 130.505 239.825 L 115.915 254.417 115.613 257.719 C 115.447 259.535,115.337 261.688,115.369 262.504 L 115.426 263.986 134.825 244.544 L 154.224 225.103 156.513 227.385 L 158.801 229.667 170.184 218.283 L 181.568 206.898 179.276 204.607 L 176.985 202.316 195.984 183.299 C 206.433 172.840,215.152 164.091,215.358 163.857 L 215.734 163.430 213.978 163.453 C 213.013 163.466,210.894 163.597,209.271 163.744 M261.311 292.724 C 259.117 293.763,258.700 293.100,266.401 300.802 L 273.238 307.638 264.130 316.747 L 255.023 325.856 255.407 326.288 C 256.730 327.777,260.061 328.175,262.229 327.103 C 264.105 326.176,278.285 311.959,279.043 310.246 C 279.748 308.650,279.749 306.630,279.044 305.033 C 278.326 303.408,268.631 293.641,266.849 292.747 C 265.192 291.917,263.034 291.908,261.311 292.724 M260.030 396.278 C 257.106 396.868,254.341 398.017,252.241 399.515 C 251.018 400.388,248.398 402.996,248.398 403.341 C 248.398 403.440,248.271 403.648,248.115 403.803 C 247.692 404.227,246.548 406.481,246.243 407.491 C 246.096 407.979,245.841 408.778,245.676 409.266 C 244.713 412.112,245.629 419.457,247.226 421.701 C 247.437 421.997,247.610 422.296,247.610 422.365 C 247.610 424.123,254.073 429.143,257.445 430.004 C 268.325 432.783,277.927 428.739,281.294 419.959 C 284.644 411.222,280.795 401.382,272.647 397.855 C 272.050 397.597,271.385 397.307,271.168 397.211 C 268.911 396.213,262.864 395.707,260.030 396.278 M300.345 396.266 C 297.690 396.834,297.560 396.875,295.318 397.852 C 287.060 401.450,283.297 411.365,286.796 420.306 C 287.071 421.010,287.383 421.699,287.489 421.836 C 287.595 421.972,287.825 422.343,288.000 422.659 C 289.022 424.501,291.602 427.031,293.610 428.159 C 294.062 428.413,294.617 428.739,294.845 428.884 C 298.145 430.984,304.822 431.463,310.504 430.008 C 311.353 429.790,313.640 428.801,314.046 428.476 C 314.209 428.345,314.616 428.100,314.950 427.931 C 316.479 427.157,319.374 424.272,320.170 422.726 C 320.326 422.425,320.502 422.134,320.563 422.080 C 320.915 421.764,321.783 419.516,322.351 417.447 C 322.713 416.131,322.712 410.713,322.351 409.364 C 321.802 407.320,320.492 404.402,319.670 403.395 C 319.518 403.209,319.089 402.684,318.716 402.229 C 318.125 401.508,317.330 400.767,315.874 399.582 C 315.250 399.074,313.064 397.831,312.794 397.831 C 312.659 397.831,312.464 397.750,312.361 397.650 C 311.180 396.505,303.410 395.609,300.345 396.266 M364.909 396.347 C 360.601 397.142,357.052 399.396,355.715 402.187 C 354.915 403.857,354.814 404.252,354.714 406.111 C 354.357 412.701,357.397 415.307,368.063 417.558 C 372.397 418.473,374.043 419.831,373.161 421.766 C 372.488 423.242,367.682 423.755,363.726 422.772 C 362.151 422.381,361.441 422.115,359.440 421.162 C 358.221 420.583,357.189 420.108,357.147 420.108 C 357.105 420.108,356.604 421.151,356.033 422.425 C 355.462 423.699,354.748 425.274,354.446 425.924 C 353.818 427.278,353.806 427.253,355.446 428.142 C 361.183 431.254,371.465 431.825,376.737 429.324 C 384.643 425.575,385.307 415.543,377.886 411.978 C 375.720 410.938,375.290 410.808,369.936 409.572 C 366.042 408.673,364.895 408.178,364.427 407.191 C 362.604 403.350,371.234 402.316,377.464 405.628 C 378.614 406.239,378.749 406.190,379.194 404.997 C 379.390 404.471,379.746 403.598,379.984 403.056 C 380.222 402.514,380.619 401.582,380.867 400.986 C 381.114 400.389,381.395 399.747,381.491 399.559 C 381.772 399.008,381.711 398.910,380.803 398.456 C 376.640 396.377,369.722 395.459,364.909 396.347 M31.997 396.892 C 31.892 397.029,31.687 397.452,31.541 397.831 C 31.309 398.434,30.930 399.303,29.862 401.676 C 29.596 402.266,27.147 407.829,26.824 408.576 C 26.730 408.793,26.454 409.414,26.211 409.956 C 25.829 410.806,25.299 412.015,24.656 413.504 C 24.056 414.893,23.836 415.395,23.404 416.363 C 23.138 416.959,22.410 418.600,21.786 420.010 C 21.162 421.419,20.453 423.016,20.210 423.558 C 19.750 424.585,18.700 427.000,18.196 428.191 C 18.036 428.571,17.779 429.117,17.627 429.404 C 17.474 429.692,17.348 429.981,17.348 430.045 C 17.348 430.110,19.588 430.161,22.326 430.160 L 27.304 430.157 28.066 428.238 C 28.485 427.182,28.983 425.964,29.174 425.530 C 29.364 425.096,29.582 424.542,29.657 424.298 L 29.795 423.854 36.745 423.854 L 43.696 423.854 44.963 427.005 L 46.230 430.156 51.303 430.160 L 56.377 430.163 56.001 429.226 C 55.795 428.711,55.496 428.024,55.336 427.698 C 55.080 427.177,54.778 426.494,54.204 425.136 C 54.113 424.919,53.777 424.165,53.459 423.460 C 52.832 422.070,52.697 421.767,50.872 417.644 C 50.200 416.126,49.488 414.529,49.290 414.096 C 49.092 413.662,48.788 412.974,48.615 412.568 C 47.932 410.965,47.727 410.497,47.127 409.167 C 46.785 408.408,46.430 407.610,46.338 407.393 C 45.994 406.578,45.557 405.582,45.043 404.436 C 44.750 403.785,44.393 402.987,44.248 402.661 C 44.103 402.336,43.451 400.872,42.799 399.409 L 41.613 396.747 36.901 396.694 C 33.277 396.654,32.144 396.699,31.997 396.892 M58.748 413.406 L 58.748 430.163 71.562 430.163 L 84.377 430.163 84.377 426.318 L 84.377 422.474 76.392 422.474 L 68.408 422.474 68.408 409.561 L 68.408 396.649 63.578 396.649 L 58.748 396.649 58.748 413.406 M87.925 413.388 L 87.925 430.163 92.755 430.163 L 97.585 430.163 97.585 425.849 L 97.585 421.536 102.464 421.439 C 105.148 421.386,107.610 421.253,107.935 421.143 C 108.260 421.033,108.926 420.828,109.414 420.688 C 109.901 420.549,110.522 420.326,110.793 420.194 C 111.065 420.061,111.716 419.744,112.240 419.489 C 119.065 416.164,120.067 404.610,113.939 399.895 C 112.687 398.931,110.927 398.016,109.611 397.642 C 109.123 397.504,108.324 397.253,107.836 397.085 C 107.096 396.829,105.373 396.764,97.437 396.696 L 87.925 396.613 87.925 413.388 M122.425 413.406 L 122.425 430.163 127.156 430.163 L 131.888 430.163 131.888 423.756 L 131.888 417.348 138.196 417.348 L 144.505 417.348 144.505 423.756 L 144.505 430.163 149.335 430.163 L 154.165 430.163 154.165 413.406 L 154.165 396.649 149.335 396.649 L 144.505 396.649 144.505 402.957 L 144.505 409.266 138.196 409.266 L 131.888 409.266 131.888 402.957 L 131.888 396.649 127.156 396.649 L 122.425 396.649 122.425 413.406 M170.438 398.768 C 169.920 399.933,169.363 401.198,169.201 401.577 C 169.040 401.957,168.606 402.915,168.239 403.707 C 167.871 404.499,167.570 405.184,167.570 405.229 C 167.570 405.319,166.876 406.882,165.974 408.823 C 165.659 409.501,165.402 410.097,165.402 410.149 C 165.402 410.256,163.240 415.147,161.673 418.586 C 161.338 419.320,161.065 419.964,161.065 420.017 C 161.065 420.111,160.682 420.988,159.779 422.967 C 159.532 423.509,159.197 424.263,159.035 424.643 C 158.678 425.478,158.053 426.879,157.293 428.541 C 156.982 429.222,156.727 429.866,156.727 429.974 C 156.727 430.099,158.505 430.151,161.692 430.117 L 166.657 430.064 166.978 429.177 C 167.154 428.689,167.434 427.979,167.601 427.599 C 167.768 427.218,168.026 426.553,168.174 426.120 C 168.323 425.687,168.558 425.158,168.697 424.944 C 168.836 424.730,168.950 424.396,168.950 424.202 C 168.950 423.706,182.898 423.751,183.158 424.248 C 183.243 424.411,183.549 425.165,183.837 425.924 C 184.125 426.683,184.628 427.947,184.954 428.733 L 185.547 430.163 190.556 430.163 C 193.310 430.163,195.564 430.117,195.564 430.062 C 195.564 429.914,193.959 426.154,193.797 425.924 C 193.721 425.816,193.540 425.416,193.394 425.037 C 193.130 424.349,192.685 423.330,191.587 420.897 C 191.269 420.192,190.934 419.438,190.843 419.221 C 190.303 417.943,190.036 417.334,189.591 416.363 C 189.318 415.766,188.921 414.879,188.708 414.391 C 188.495 413.903,187.988 412.750,187.580 411.828 C 187.173 410.907,186.684 409.798,186.494 409.364 C 185.816 407.814,183.699 403.041,183.346 402.267 C 183.148 401.833,182.855 401.168,182.694 400.789 C 182.363 400.008,181.696 398.484,181.207 397.393 L 180.877 396.659 176.129 396.654 L 171.381 396.649 170.438 398.768 M211.927 413.388 L 211.927 430.163 216.757 430.163 L 221.587 430.163 221.587 425.849 L 221.587 421.536 226.466 421.440 C 231.876 421.332,233.297 421.072,235.881 419.714 C 244.713 415.072,244.168 401.816,234.993 398.110 C 231.718 396.788,231.852 396.802,221.439 396.703 L 211.927 396.613 211.927 413.388 M327.452 413.406 L 327.452 430.163 340.270 430.163 L 353.089 430.163 353.035 426.368 L 352.982 422.573 345.047 422.521 L 337.112 422.470 337.112 409.559 L 337.112 396.649 332.282 396.649 L 327.452 396.649 327.452 413.406 M266.831 404.554 C 271.014 406.082,273.238 410.196,272.536 415.109 C 271.175 424.632,258.432 425.690,255.497 416.523 C 253.135 409.147,259.886 402.017,266.831 404.554 M305.668 404.237 C 313.582 405.283,315.680 417.153,308.724 421.520 C 302.176 425.631,294.449 420.143,295.373 412.038 C 295.893 407.480,300.565 403.340,304.386 404.052 C 304.549 404.082,305.126 404.165,305.668 404.237 M104.936 404.701 C 107.490 405.544,108.640 407.469,108.181 410.135 C 107.700 412.927,105.539 413.997,100.382 413.997 L 97.585 413.997 97.585 409.167 L 97.585 404.337 100.709 404.337 C 103.216 404.337,104.050 404.409,104.936 404.701 M228.586 404.545 C 231.734 405.367,233.129 407.974,232.014 410.953 C 231.186 413.167,229.140 413.995,224.495 413.996 L 221.587 413.997 221.587 409.167 L 221.587 404.337 224.692 404.338 C 226.400 404.339,228.152 404.432,228.586 404.545 M37.153 407.442 C 37.341 407.957,37.610 408.645,37.751 408.970 C 37.970 409.477,38.352 410.414,39.035 412.124 C 39.122 412.341,39.549 413.428,39.985 414.539 L 40.778 416.560 36.756 416.560 L 32.734 416.560 32.955 416.018 C 33.076 415.720,33.296 415.196,33.443 414.854 C 33.591 414.513,33.711 414.171,33.711 414.096 C 33.711 414.020,33.837 413.679,33.992 413.337 C 34.146 412.995,34.830 411.318,35.510 409.611 C 36.191 407.903,36.763 406.506,36.780 406.506 C 36.798 406.506,36.965 406.927,37.153 407.442 M176.908 408.625 C 177.327 409.682,177.793 410.827,177.943 411.168 C 178.093 411.510,178.216 411.859,178.216 411.944 C 178.216 412.029,178.382 412.459,178.586 412.900 C 178.995 413.784,179.990 416.311,179.990 416.463 C 179.990 416.516,178.216 416.560,176.047 416.560 C 173.879 416.560,172.104 416.514,172.104 416.457 C 172.104 416.400,172.380 415.668,172.718 414.830 C 173.055 413.993,173.401 413.130,173.487 412.913 C 175.388 408.109,175.966 406.709,176.047 406.706 C 176.102 406.705,176.489 407.568,176.908 408.625 " stroke="none" fill="#0e4d5f" fill-rule="evenodd"></path><path id="path1" d="M130.751 187.876 C 130.751 188.255,130.791 188.411,130.841 188.221 C 130.890 188.031,130.890 187.721,130.841 187.531 C 130.791 187.341,130.751 187.496,130.751 187.876 M130.751 189.256 C 130.751 189.635,130.791 189.791,130.841 189.601 C 130.890 189.411,130.890 189.101,130.841 188.911 C 130.791 188.721,130.751 188.876,130.751 189.256 M93.343 224.068 L 90.186 225.138 86.701 228.636 L 83.217 232.134 86.548 237.654 C 88.381 240.690,89.916 243.263,89.959 243.371 C 90.003 243.480,92.113 242.537,94.650 241.277 L 99.261 238.985 100.409 233.212 L 101.558 227.439 99.328 225.203 C 98.102 223.973,96.964 222.974,96.800 222.983 C 96.635 222.991,95.080 223.479,93.343 224.068 M258.058 251.235 C 258.058 251.276,258.401 251.831,258.821 252.466 C 261.660 256.769,261.660 262.304,258.821 266.607 C 258.401 267.243,258.058 267.797,258.058 267.839 C 258.058 267.880,258.489 267.605,259.016 267.226 C 263.149 264.257,269.528 264.258,273.660 267.227 C 274.877 268.101,274.975 268.092,274.242 267.176 C 273.497 266.246,272.381 263.817,272.046 262.395 C 271.258 259.050,272.228 254.411,274.242 251.897 C 274.871 251.111,274.814 250.910,274.138 251.534 C 270.596 254.802,263.376 254.941,258.995 251.825 C 258.480 251.459,258.058 251.193,258.058 251.235 M290.773 256.934 C 293.666 261.234,293.709 266.963,290.881 271.181 C 290.413 271.879,290.053 272.449,290.082 272.449 C 290.110 272.449,290.724 272.062,291.445 271.588 C 295.699 268.794,301.450 268.879,305.715 271.799 L 306.986 272.669 306.391 271.919 C 302.933 267.552,302.959 261.493,306.458 256.204 C 306.836 255.633,306.835 255.634,305.838 256.350 C 301.461 259.495,294.928 259.441,290.744 256.225 L 289.818 255.513 290.773 256.934 M96.994 264.071 L 92.364 268.704 88.460 268.704 L 84.556 268.704 84.686 269.443 C 85.924 276.497,88.994 285.948,92.898 294.726 C 109.213 331.415,145.255 357.866,185.701 362.833 C 187.053 362.999,188.229 363.135,188.313 363.135 C 188.398 363.135,188.467 359.385,188.467 354.803 L 188.467 346.472 185.116 343.125 L 181.764 339.778 181.764 330.610 L 181.764 321.443 178.267 317.942 L 174.770 314.441 170.170 314.441 L 165.570 314.441 162.107 310.991 L 158.644 307.541 149.551 307.541 L 140.457 307.541 138.144 305.221 L 135.830 302.902 135.830 296.101 L 135.830 289.301 132.380 285.855 L 128.931 282.409 128.931 275.506 L 128.931 268.602 124.403 264.077 L 119.875 259.552 117.599 261.812 C 116.347 263.054,115.268 264.115,115.201 264.170 C 115.134 264.224,115.140 263.181,115.215 261.853 L 115.351 259.438 108.487 259.438 L 101.623 259.438 96.994 264.071 M173.618 272.191 L 172.476 280.212 174.749 282.484 L 177.021 284.757 182.399 283.698 C 185.357 283.116,187.952 282.577,188.166 282.502 C 188.502 282.383,188.711 281.585,189.694 276.670 L 190.834 270.976 187.435 267.573 L 184.036 264.170 179.398 264.170 L 174.760 264.170 173.618 272.191 M144.996 266.585 C 144.947 266.720,144.418 269.315,143.821 272.351 L 142.734 277.871 145.049 280.163 L 147.363 282.454 152.982 279.073 L 158.600 275.692 158.653 271.015 L 158.706 266.338 151.895 266.338 C 146.624 266.338,145.064 266.394,144.996 266.585 M226.516 288.480 C 226.516 288.514,226.804 288.802,227.156 289.120 L 227.797 289.699 227.218 289.059 C 226.678 288.461,226.516 288.327,226.516 288.480 M230.853 292.817 C 230.853 292.851,231.141 293.139,231.493 293.457 L 232.134 294.036 231.555 293.396 C 231.015 292.799,230.853 292.664,230.853 292.817 M235.190 297.154 C 235.190 297.188,235.478 297.476,235.830 297.795 L 236.471 298.374 235.892 297.733 C 235.352 297.136,235.190 297.002,235.190 297.154 M236.964 298.928 C 236.964 298.962,237.252 299.250,237.605 299.569 L 238.245 300.148 237.666 299.507 C 237.127 298.910,236.964 298.776,236.964 298.928 " stroke="none" fill="#f1bc4a" fill-rule="evenodd"></path><path id="path2" d="M200.099 70.540 L 200.099 106.975 205.372 107.214 C 218.087 107.790,228.522 109.522,240.056 112.973 C 242.676 113.757,243.135 113.815,242.735 113.312 C 242.625 113.174,241.979 111.996,241.299 110.695 C 240.619 109.394,239.909 108.063,239.722 107.738 C 239.272 106.959,237.384 103.420,235.091 99.064 C 234.635 98.196,233.683 96.422,232.977 95.121 C 232.270 93.820,231.315 92.045,230.855 91.178 C 226.921 83.774,225.882 81.826,224.546 79.349 C 224.254 78.807,223.544 77.477,222.970 76.392 C 222.395 75.308,221.612 73.844,221.230 73.139 C 220.218 71.272,219.313 69.566,218.091 67.225 C 217.497 66.087,216.810 64.800,216.564 64.367 C 216.015 63.396,214.728 61.008,213.485 58.650 C 212.970 57.674,212.277 56.361,211.946 55.731 C 211.614 55.102,210.974 53.905,210.524 53.070 C 208.732 49.745,208.394 49.113,207.392 47.215 C 206.820 46.131,206.197 44.978,206.009 44.653 C 205.821 44.327,205.066 42.908,204.330 41.498 C 203.595 40.089,202.675 38.359,202.285 37.654 C 201.895 36.949,201.313 35.862,200.993 35.239 C 200.672 34.616,200.340 34.105,200.254 34.105 C 200.169 34.105,200.099 50.501,200.099 70.540 M195.121 127.893 C 195.690 127.933,196.621 127.933,197.191 127.893 C 197.760 127.853,197.294 127.821,196.156 127.821 C 195.017 127.821,194.552 127.853,195.121 127.893 M203.204 127.893 C 203.773 127.933,204.704 127.933,205.274 127.893 C 205.843 127.853,205.377 127.821,204.239 127.821 C 203.100 127.821,202.634 127.853,203.204 127.893 M189.207 128.281 C 189.450 128.328,189.850 128.328,190.094 128.281 C 190.338 128.234,190.138 128.196,189.650 128.196 C 189.162 128.196,188.963 128.234,189.207 128.281 M210.301 128.281 C 210.545 128.328,210.944 128.328,211.188 128.281 C 211.432 128.234,211.232 128.196,210.744 128.196 C 210.256 128.196,210.057 128.234,210.301 128.281 M121.134 158.157 L 120.355 158.995 121.193 158.215 C 121.654 157.787,122.031 157.410,122.031 157.377 C 122.031 157.228,121.859 157.378,121.134 158.157 M278.364 157.381 C 278.364 157.414,278.652 157.703,279.004 158.021 L 279.645 158.600 279.066 157.960 C 278.526 157.362,278.364 157.228,278.364 157.381 M283.588 162.445 C 285.429 164.288,286.979 165.796,287.034 165.796 C 287.088 165.796,285.626 164.288,283.785 162.445 C 281.944 160.601,280.394 159.093,280.339 159.093 C 280.285 159.093,281.747 160.601,283.588 162.445 M116.804 162.297 L 114.046 165.106 116.856 162.349 C 118.401 160.832,119.665 159.568,119.665 159.539 C 119.665 159.398,119.365 159.687,116.804 162.297 M112.557 166.732 L 111.878 167.472 112.617 166.792 C 113.305 166.160,113.447 165.993,113.296 165.993 C 113.263 165.993,112.931 166.326,112.557 166.732 M287.432 166.449 C 287.432 166.483,287.721 166.771,288.073 167.090 L 288.714 167.669 288.135 167.028 C 287.595 166.431,287.432 166.297,287.432 166.449 M82.845 233.021 C 82.845 233.401,82.886 233.556,82.935 233.366 C 82.985 233.176,82.985 232.866,82.935 232.676 C 82.886 232.486,82.845 232.642,82.845 233.021 M317.838 237.161 C 317.838 237.541,317.878 237.696,317.928 237.506 C 317.977 237.316,317.977 237.006,317.928 236.816 C 317.878 236.626,317.838 236.782,317.838 237.161 M82.462 237.654 C 82.463 238.196,82.501 238.395,82.547 238.095 C 82.592 237.795,82.591 237.352,82.544 237.109 C 82.497 236.867,82.460 237.112,82.462 237.654 M318.058 240.907 C 318.058 241.828,318.092 242.206,318.134 241.745 C 318.175 241.284,318.175 240.530,318.134 240.069 C 318.092 239.608,318.058 239.985,318.058 240.907 M82.269 242.188 C 82.270 242.839,82.307 243.081,82.351 242.727 C 82.395 242.373,82.394 241.840,82.349 241.544 C 82.304 241.248,82.268 241.538,82.269 242.188 M82.271 249.384 C 82.271 250.089,82.307 250.377,82.351 250.025 C 82.394 249.672,82.394 249.096,82.351 248.743 C 82.307 248.391,82.271 248.679,82.271 249.384 M318.059 250.665 C 318.059 251.641,318.092 252.065,318.133 251.608 C 318.175 251.150,318.175 250.352,318.134 249.833 C 318.094 249.315,318.060 249.690,318.059 250.665 M82.462 254.017 C 82.463 254.559,82.501 254.757,82.547 254.458 C 82.592 254.158,82.591 253.714,82.544 253.472 C 82.497 253.229,82.460 253.475,82.462 254.017 M317.838 254.312 C 317.838 254.692,317.878 254.847,317.928 254.657 C 317.977 254.468,317.977 254.157,317.928 253.967 C 317.878 253.778,317.838 253.933,317.838 254.312 M82.845 258.452 C 82.845 258.832,82.886 258.987,82.935 258.797 C 82.985 258.608,82.985 258.297,82.935 258.107 C 82.886 257.918,82.845 258.073,82.845 258.452 M333.080 284.919 C 325.790 309.810,310.692 333.432,291.474 350.018 C 290.498 350.860,289.579 351.662,289.432 351.801 C 289.208 352.011,289.245 352.192,289.653 352.911 C 290.256 353.971,291.553 356.386,292.693 358.572 C 293.695 360.491,295.141 363.207,295.910 364.613 C 297.334 367.218,300.010 372.255,300.334 372.941 L 300.542 373.383 341.005 373.384 C 363.260 373.385,381.469 373.331,381.469 373.265 C 381.469 373.198,381.080 372.422,380.604 371.540 C 379.145 368.834,378.306 367.259,377.229 365.205 C 376.661 364.120,375.593 362.124,374.857 360.769 C 374.120 359.414,373.156 357.614,372.713 356.770 C 372.270 355.925,371.819 355.083,371.710 354.897 C 371.601 354.711,370.972 353.539,370.311 352.292 C 369.650 351.045,368.741 349.337,368.290 348.497 C 366.665 345.463,365.824 343.880,364.861 342.040 C 364.322 341.010,363.814 340.079,363.732 339.970 C 363.650 339.862,363.050 338.753,362.397 337.506 C 361.745 336.259,360.950 334.751,360.630 334.155 C 360.310 333.558,359.488 332.006,358.801 330.705 C 358.115 329.404,357.489 328.250,357.409 328.142 C 357.330 328.034,356.763 326.969,356.150 325.776 C 354.897 323.340,354.014 321.668,352.610 319.073 C 352.081 318.098,351.293 316.634,350.858 315.821 C 350.422 315.007,349.846 313.943,349.577 313.455 C 348.993 312.397,348.227 310.962,345.789 306.358 C 344.784 304.460,343.719 302.464,343.423 301.922 C 343.126 301.380,342.461 300.138,341.944 299.162 C 341.428 298.186,340.715 296.856,340.361 296.205 C 339.664 294.924,338.781 293.270,337.308 290.488 C 336.791 289.512,335.912 287.871,335.354 286.841 C 334.797 285.811,334.194 284.680,334.014 284.327 C 333.569 283.455,333.495 283.502,333.080 284.919 M286.927 325.727 L 286.348 326.368 286.989 325.789 C 287.586 325.249,287.720 325.086,287.568 325.086 C 287.534 325.086,287.245 325.375,286.927 325.727 M283.780 329.078 L 282.208 330.705 283.834 329.132 C 285.345 327.672,285.551 327.452,285.407 327.452 C 285.377 327.452,284.645 328.184,283.780 329.078 M211.683 363.274 C 211.928 363.321,212.283 363.319,212.471 363.270 C 212.660 363.221,212.459 363.182,212.026 363.184 C 211.592 363.186,211.438 363.227,211.683 363.274 M192.948 363.671 C 193.298 363.715,193.919 363.715,194.328 363.673 C 194.737 363.630,194.450 363.594,193.691 363.594 C 192.932 363.593,192.598 363.628,192.948 363.671 M205.959 363.671 C 206.309 363.715,206.930 363.715,207.339 363.673 C 207.748 363.630,207.462 363.594,206.703 363.594 C 205.944 363.593,205.609 363.628,205.959 363.671 M199.463 363.871 C 199.927 363.912,200.636 363.912,201.040 363.869 C 201.444 363.827,201.065 363.793,200.197 363.794 C 199.330 363.794,198.999 363.829,199.463 363.871 " stroke="none" fill="#0c8c9c" fill-rule="evenodd"></path><path id="path3" d="M196.451 127.868 C 142.894 129.689,97.354 167.121,85.288 219.238 C 84.179 224.028,83.554 227.882,82.812 234.500 C 81.768 243.810,82.345 257.072,84.241 267.324 L 84.478 268.605 88.419 268.658 L 92.361 268.710 96.992 264.074 L 101.623 259.438 108.463 259.438 L 115.304 259.438 115.406 258.600 C 115.462 258.139,115.562 257.186,115.628 256.481 C 117.028 241.492,123.545 228.588,136.285 215.574 L 140.338 211.434 138.085 209.165 L 135.832 206.896 138.144 204.584 L 140.456 202.272 136.390 198.179 C 132.050 193.809,131.554 193.129,131.002 190.787 C 129.363 183.837,135.820 177.358,142.640 179.109 C 145.105 179.742,145.726 180.192,150.078 184.500 L 154.172 188.552 156.488 186.243 L 158.804 183.933 161.065 186.201 L 163.326 188.468 166.680 185.152 C 171.171 180.711,172.949 179.090,175.518 177.092 C 186.325 168.688,199.311 163.917,212.518 163.498 L 215.968 163.388 196.552 182.826 L 177.135 202.264 179.351 204.487 C 180.570 205.709,181.567 206.795,181.567 206.900 C 181.567 207.005,180.570 208.091,179.351 209.313 L 177.135 211.536 218.266 252.667 L 259.396 293.797 259.959 293.401 C 262.121 291.877,264.628 291.587,266.807 292.608 C 268.473 293.388,278.339 303.277,279.126 304.955 C 279.861 306.524,279.865 308.746,279.135 310.303 C 278.366 311.944,263.845 326.470,262.223 327.221 C 260.660 327.945,258.758 328.030,257.171 327.446 C 255.653 326.888,245.282 316.695,244.439 314.933 C 243.485 312.939,243.964 309.276,245.327 308.145 C 245.498 308.003,245.638 307.822,245.638 307.744 C 245.638 307.665,227.145 289.068,204.542 266.417 L 163.445 225.234 161.217 227.452 C 159.991 228.672,158.902 229.670,158.797 229.670 C 158.692 229.670,157.606 228.673,156.384 227.454 L 154.162 225.238 137.012 242.386 L 119.863 259.535 124.397 264.072 L 128.931 268.608 128.931 275.509 L 128.931 282.409 132.380 285.855 L 135.830 289.301 135.830 296.107 L 135.830 302.914 138.150 305.227 L 140.469 307.541 149.557 307.541 L 158.644 307.541 162.107 310.991 L 165.570 314.441 170.166 314.441 L 174.762 314.441 178.263 317.938 L 181.764 321.435 181.764 330.606 L 181.764 339.778 185.116 343.125 L 188.467 346.472 188.467 354.782 L 188.467 363.092 188.911 363.203 C 190.177 363.520,197.919 363.769,202.957 363.655 C 275.455 362.015,329.186 295.965,316.202 224.446 C 305.838 167.355,254.431 125.896,196.451 127.868 M99.328 225.203 L 101.558 227.439 100.409 233.212 L 99.261 238.985 94.650 241.277 C 92.113 242.537,90.003 243.480,89.959 243.371 C 89.916 243.263,88.381 240.690,86.548 237.654 L 83.217 232.134 86.701 228.636 L 90.186 225.138 93.343 224.068 C 95.080 223.479,96.635 222.991,96.800 222.983 C 96.964 222.974,98.102 223.973,99.328 225.203 M260.785 252.921 C 264.712 254.899,271.224 254.223,274.138 251.534 C 274.814 250.910,274.871 251.111,274.242 251.897 C 273.497 252.827,272.381 255.257,272.046 256.678 C 271.258 260.023,272.228 264.662,274.242 267.176 C 274.975 268.092,274.877 268.101,273.660 267.227 C 269.528 264.258,263.149 264.257,259.016 267.226 C 258.489 267.605,258.058 267.880,258.058 267.839 C 258.058 267.797,258.401 267.243,258.821 266.607 C 261.660 262.304,261.660 256.769,258.821 252.466 C 258.401 251.831,258.058 251.276,258.058 251.235 C 258.058 251.193,258.480 251.459,258.995 251.825 C 259.510 252.191,260.315 252.685,260.785 252.921 M292.865 257.483 C 297.122 259.426,302.170 258.985,305.838 256.350 C 306.835 255.634,306.836 255.633,306.458 256.204 C 302.959 261.493,302.933 267.552,306.391 271.919 L 306.986 272.669 305.715 271.799 C 301.450 268.879,295.699 268.794,291.445 271.588 C 290.724 272.062,290.110 272.449,290.082 272.449 C 290.053 272.449,290.413 271.879,290.881 271.181 C 293.709 266.963,293.666 261.234,290.773 256.934 L 289.818 255.513 290.744 256.225 C 291.254 256.617,292.208 257.183,292.865 257.483 M187.435 267.573 L 190.834 270.976 189.694 276.670 C 188.711 281.585,188.502 282.383,188.166 282.502 C 187.952 282.577,185.357 283.116,182.399 283.698 L 177.021 284.757 174.749 282.484 L 172.476 280.212 173.618 272.191 L 174.760 264.170 179.398 264.170 L 184.036 264.170 187.435 267.573 M158.653 271.015 L 158.600 275.692 152.982 279.073 L 147.363 282.454 145.049 280.163 L 142.734 277.871 143.821 272.351 C 144.418 269.315,144.947 266.720,144.996 266.585 C 145.064 266.394,146.624 266.338,151.895 266.338 L 158.706 266.338 158.653 271.015 " stroke="none" fill="#fbfbfb" fill-rule="evenodd"></path><path id="path4" d="M211.092 163.570 C 211.337 163.617,211.692 163.615,211.880 163.566 C 212.069 163.516,211.868 163.478,211.434 163.480 C 211.000 163.482,210.846 163.523,211.092 163.570 M208.625 163.763 C 208.815 163.813,209.125 163.813,209.315 163.763 C 209.505 163.714,209.349 163.673,208.970 163.673 C 208.590 163.673,208.435 163.714,208.625 163.763 M202.661 164.615 C 188.088 167.689,178.132 173.505,165.405 186.377 L 163.338 188.468 161.043 186.179 C 159.621 184.760,158.696 183.975,158.611 184.114 C 158.535 184.236,158.564 184.313,158.677 184.283 C 158.789 184.253,161.879 187.204,165.542 190.840 C 169.206 194.477,172.298 197.510,172.412 197.581 C 172.528 197.652,180.143 190.187,189.464 180.866 C 202.770 167.559,206.204 164.025,205.815 164.038 C 205.544 164.046,204.125 164.306,202.661 164.615 M138.465 179.091 C 133.893 180.125,130.895 183.848,130.884 188.505 C 130.876 192.175,131.475 193.221,136.490 198.280 L 140.452 202.277 138.142 204.586 L 135.832 206.896 138.085 209.165 L 140.338 211.434 136.285 215.574 C 128.166 223.867,124.197 229.468,120.656 237.624 C 118.483 242.631,115.919 251.604,115.919 254.202 C 115.919 254.316,122.484 247.846,130.507 239.823 L 145.095 225.236 140.514 220.652 L 135.934 216.069 138.196 213.800 L 140.459 211.531 146.179 217.249 L 151.900 222.967 161.065 213.800 L 170.230 204.633 162.270 196.671 C 156.854 191.254,154.360 188.630,154.465 188.459 C 154.570 188.289,154.541 188.258,154.373 188.362 C 154.208 188.464,152.835 187.233,150.252 184.671 C 144.759 179.222,142.538 178.171,138.465 179.091 M179.202 204.534 C 180.445 205.781,181.507 206.801,181.561 206.801 C 181.615 206.801,180.642 205.781,179.399 204.534 C 178.155 203.287,177.094 202.267,177.039 202.267 C 176.985 202.267,177.958 203.287,179.202 204.534 M170.132 218.382 C 163.898 224.643,159.841 228.747,161.115 227.502 L 163.433 225.238 204.536 266.340 C 227.142 288.946,245.638 307.542,245.638 307.664 C 245.638 307.787,245.498 308.003,245.327 308.145 C 243.962 309.278,243.484 312.943,244.442 314.933 C 244.798 315.673,246.268 317.271,250.341 321.341 C 253.324 324.322,255.598 326.558,255.394 326.309 L 255.023 325.856 264.130 316.747 L 273.238 307.638 266.401 300.802 C 260.108 294.508,259.587 293.937,259.846 293.606 C 260.106 293.276,260.101 293.270,259.769 293.530 C 259.438 293.790,256.229 290.630,218.273 252.674 L 177.135 211.536 179.397 209.267 C 180.641 208.019,181.616 206.999,181.563 206.999 C 181.511 206.999,176.367 212.121,170.132 218.382 M156.333 227.403 C 157.577 228.650,158.638 229.670,158.692 229.670 C 158.747 229.670,157.774 228.650,156.530 227.403 C 155.287 226.156,154.225 225.136,154.171 225.136 C 154.117 225.136,155.090 226.156,156.333 227.403 M115.575 256.974 C 115.577 257.408,115.617 257.562,115.664 257.317 C 115.711 257.071,115.710 256.716,115.660 256.528 C 115.611 256.340,115.572 256.540,115.575 256.974 M115.373 259.241 C 115.373 259.621,115.414 259.776,115.464 259.586 C 115.513 259.396,115.513 259.086,115.464 258.896 C 115.414 258.706,115.373 258.862,115.373 259.241 M115.197 262.790 C 115.197 263.603,115.232 263.935,115.274 263.529 C 115.317 263.122,115.317 262.457,115.274 262.050 C 115.232 261.644,115.197 261.976,115.197 262.790 M263.532 292.109 C 263.887 292.153,264.419 292.152,264.715 292.107 C 265.011 292.062,264.722 292.026,264.071 292.028 C 263.420 292.029,263.178 292.065,263.532 292.109 M269.887 295.182 C 269.887 295.216,270.175 295.505,270.527 295.823 L 271.168 296.402 270.589 295.761 C 270.049 295.164,269.887 295.030,269.887 295.182 M279.608 307.639 C 279.609 308.290,279.646 308.532,279.689 308.178 C 279.733 307.824,279.732 307.291,279.687 306.995 C 279.642 306.699,279.607 306.989,279.608 307.639 M113.948 326.368 C 114.316 326.747,114.661 327.058,114.715 327.058 C 114.769 327.058,114.513 326.747,114.145 326.368 C 113.777 325.988,113.432 325.678,113.378 325.678 C 113.323 325.678,113.580 325.988,113.948 326.368 M119.566 331.986 C 119.990 332.420,120.381 332.775,120.435 332.775 C 120.489 332.775,120.187 332.420,119.763 331.986 C 119.340 331.552,118.949 331.198,118.895 331.198 C 118.841 331.198,119.143 331.552,119.566 331.986 " stroke="none" fill="#b87b55" fill-rule="evenodd"></path></g></svg>