<svg id="svg" version="1.1" xmlns="http://www.w3.org/2000/svg" xmlns:xlink="http://www.w3.org/1999/xlink" width="400" height="400" viewBox="0, 0, 400,400"><g id="svgg"><path id="path0" d="M200.800 34.400 C 200.800 34.840,200.549 35.200,200.243 35.200 C 199.605 35.200,199.200 36.049,199.200 37.386 C 199.200 37.970,198.908 38.383,198.400 38.516 C 197.794 38.675,197.600 39.062,197.600 40.116 C 197.600 41.170,197.406 41.557,196.800 41.716 C 196.187 41.876,196.000 42.262,196.000 43.363 C 196.000 44.374,195.822 44.800,195.400 44.800 C 195.044 44.800,194.800 45.167,194.800 45.704 C 194.800 46.201,194.440 46.832,194.000 47.107 C 193.560 47.382,193.200 48.034,193.200 48.557 C 193.200 49.170,192.917 49.581,192.400 49.716 C 191.822 49.867,191.600 50.262,191.600 51.136 C 191.600 51.995,191.368 52.420,190.800 52.600 C 190.212 52.787,190.000 53.205,190.000 54.180 C 190.000 55.170,189.797 55.560,189.200 55.716 C 188.587 55.876,188.400 56.262,188.400 57.363 C 188.400 58.533,188.252 58.800,187.600 58.800 C 186.933 58.800,186.800 59.067,186.800 60.400 C 186.800 61.733,186.667 62.000,186.000 62.000 C 185.358 62.000,185.200 62.267,185.200 63.353 C 185.200 64.370,185.001 64.759,184.400 64.916 C 183.794 65.075,183.600 65.462,183.600 66.516 C 183.600 67.570,183.406 67.957,182.800 68.116 C 182.347 68.234,182.000 68.662,182.000 69.101 C 182.000 69.527,181.640 70.202,181.200 70.600 C 180.760 70.998,180.400 71.662,180.400 72.075 C 180.400 72.487,180.130 72.929,179.800 73.055 C 179.430 73.197,179.200 73.805,179.200 74.643 C 179.200 75.733,179.043 76.000,178.400 76.000 C 177.733 76.000,177.600 76.267,177.600 77.600 C 177.600 78.933,177.467 79.200,176.800 79.200 C 176.158 79.200,176.000 79.467,176.000 80.553 C 176.000 81.570,175.801 81.959,175.200 82.116 C 174.587 82.276,174.400 82.662,174.400 83.763 C 174.400 84.933,174.252 85.200,173.600 85.200 C 172.933 85.200,172.800 85.467,172.800 86.800 C 172.800 88.133,172.667 88.400,172.000 88.400 C 171.333 88.400,171.200 88.667,171.200 90.000 C 171.200 91.333,171.067 91.600,170.400 91.600 C 169.935 91.600,169.600 91.867,169.600 92.237 C 169.600 92.587,169.240 93.331,168.800 93.891 C 168.360 94.450,168.000 95.244,168.000 95.654 C 168.000 96.064,167.732 96.400,167.405 96.400 C 167.020 96.400,166.719 96.965,166.554 98.000 C 166.411 98.889,166.073 99.600,165.792 99.600 C 165.226 99.600,164.800 100.473,164.800 101.633 C 164.800 102.055,164.549 102.400,164.243 102.400 C 163.598 102.400,163.200 103.252,163.200 104.633 C 163.200 105.226,162.968 105.600,162.600 105.600 C 162.167 105.600,162.000 106.044,162.000 107.200 C 162.000 108.533,161.867 108.800,161.200 108.800 C 160.533 108.800,160.400 109.067,160.400 110.400 C 160.400 111.733,160.267 112.000,159.600 112.000 C 159.160 112.000,158.800 112.249,158.800 112.553 C 158.800 112.858,158.440 113.201,158.000 113.316 C 157.560 113.431,157.200 113.812,157.200 114.163 C 157.200 114.670,156.743 114.800,154.963 114.800 C 153.062 114.800,152.694 114.920,152.516 115.600 C 152.363 116.184,151.968 116.401,151.053 116.405 C 149.197 116.414,148.000 116.822,148.000 117.447 C 148.000 117.826,147.496 118.000,146.400 118.000 C 145.067 118.000,144.800 118.133,144.800 118.800 C 144.800 119.467,144.533 119.600,143.200 119.600 C 141.867 119.600,141.600 119.733,141.600 120.400 C 141.600 121.067,141.333 121.200,140.000 121.200 C 138.667 121.200,138.400 121.333,138.400 122.000 C 138.400 122.667,138.133 122.800,136.800 122.800 C 135.467 122.800,135.200 122.933,135.200 123.600 C 135.200 124.252,134.933 124.400,133.763 124.400 C 132.662 124.400,132.276 124.587,132.116 125.200 C 131.959 125.801,131.570 126.000,130.553 126.000 C 129.467 126.000,129.200 126.158,129.200 126.800 C 129.200 127.311,128.933 127.600,128.462 127.600 C 128.056 127.600,127.398 127.960,127.000 128.400 C 126.602 128.840,125.854 129.200,125.338 129.200 C 124.771 129.200,124.400 129.437,124.400 129.800 C 124.400 130.133,124.044 130.400,123.600 130.400 C 123.160 130.400,122.800 130.567,122.800 130.771 C 122.800 130.975,122.080 131.460,121.200 131.848 C 120.320 132.236,119.600 132.789,119.600 133.077 C 119.600 133.365,119.240 133.600,118.800 133.600 C 118.267 133.600,118.000 133.867,118.000 134.400 C 118.000 134.922,117.733 135.200,117.233 135.200 C 116.041 135.200,115.200 135.631,115.200 136.243 C 115.200 136.549,114.852 136.800,114.427 136.800 C 114.002 136.800,113.540 137.160,113.400 137.600 C 113.260 138.040,112.888 138.400,112.573 138.400 C 112.258 138.400,112.000 138.760,112.000 139.200 C 112.000 139.733,111.733 140.000,111.200 140.000 C 110.667 140.000,110.400 140.267,110.400 140.800 C 110.400 141.332,110.133 141.600,109.603 141.600 C 109.165 141.600,108.582 141.960,108.307 142.400 C 108.032 142.840,107.485 143.200,107.091 143.200 C 106.697 143.200,106.266 143.484,106.133 143.831 C 106.000 144.177,105.465 144.623,104.945 144.821 C 104.425 145.018,104.000 145.455,104.000 145.790 C 104.000 146.126,103.713 146.400,103.363 146.400 C 103.012 146.400,102.631 146.760,102.516 147.200 C 102.401 147.640,102.041 148.000,101.716 148.000 C 101.391 148.000,101.031 148.360,100.916 148.800 C 100.801 149.240,100.458 149.600,100.153 149.600 C 99.849 149.600,99.600 149.858,99.600 150.173 C 99.600 150.488,99.240 150.860,98.800 151.000 C 98.360 151.140,97.997 151.467,97.993 151.727 C 97.989 151.987,97.539 152.624,96.993 153.142 C 96.447 153.660,96.000 154.425,96.000 154.842 C 96.000 155.259,95.730 155.600,95.400 155.600 C 95.067 155.600,94.800 155.956,94.800 156.400 C 94.800 156.933,94.533 157.200,94.000 157.200 C 93.467 157.200,93.200 157.467,93.200 158.000 C 93.200 158.533,92.933 158.800,92.400 158.800 C 91.867 158.800,91.600 159.067,91.600 159.600 C 91.600 160.133,91.333 160.400,90.800 160.400 C 90.236 160.400,90.000 160.667,90.000 161.304 C 90.000 161.801,89.640 162.432,89.200 162.707 C 88.760 162.982,88.400 163.565,88.400 164.003 C 88.400 164.451,88.132 164.800,87.790 164.800 C 87.455 164.800,87.018 165.225,86.821 165.745 C 86.623 166.265,86.177 166.800,85.831 166.933 C 85.448 167.080,85.200 167.652,85.200 168.387 C 85.200 169.333,85.024 169.600,84.400 169.600 C 83.867 169.600,83.600 169.867,83.600 170.400 C 83.600 170.842,83.333 171.200,83.005 171.200 C 82.622 171.200,82.320 171.758,82.159 172.765 C 81.989 173.831,81.668 174.393,81.154 174.528 C 80.739 174.636,80.400 175.025,80.400 175.391 C 80.400 175.757,80.130 176.327,79.800 176.657 C 79.470 176.987,79.200 177.694,79.200 178.229 C 79.200 178.933,78.980 179.200,78.400 179.200 C 77.755 179.200,77.600 179.467,77.600 180.573 C 77.600 181.595,77.395 182.011,76.800 182.200 C 76.212 182.387,76.000 182.805,76.000 183.780 C 76.000 184.770,75.797 185.160,75.200 185.316 C 74.594 185.475,74.400 185.862,74.400 186.916 C 74.400 187.970,74.206 188.357,73.600 188.516 C 73.017 188.668,72.800 189.062,72.800 189.963 C 72.800 190.667,72.455 191.545,72.000 192.000 C 71.475 192.525,71.200 193.333,71.200 194.353 C 71.200 195.570,71.027 195.952,70.400 196.116 C 69.771 196.280,69.600 196.662,69.600 197.901 C 69.600 198.968,69.342 199.709,68.800 200.200 C 68.264 200.685,68.000 201.432,68.000 202.462 C 68.000 203.467,67.723 204.277,67.200 204.800 C 66.581 205.419,66.400 206.133,66.400 207.953 C 66.400 209.970,66.286 210.337,65.600 210.516 C 64.898 210.699,64.800 211.062,64.800 213.466 C 64.800 215.774,64.674 216.287,64.000 216.707 C 63.296 217.147,63.200 217.640,63.200 220.803 C 63.200 223.734,63.089 224.400,62.600 224.400 C 62.093 224.400,62.000 225.350,62.000 230.553 C 62.000 236.370,61.956 236.718,61.200 236.916 C 59.952 237.242,59.952 259.471,61.200 260.600 C 61.928 261.259,62.000 261.832,62.000 266.973 C 62.000 271.134,62.146 272.830,62.553 273.412 C 62.878 273.875,63.169 275.579,63.258 277.536 C 63.371 280.036,63.573 280.991,64.064 281.350 C 64.534 281.694,64.743 282.556,64.805 284.414 C 64.966 289.207,64.870 289.888,64.000 290.116 C 63.387 290.276,63.200 290.662,63.200 291.763 C 63.200 292.774,63.022 293.200,62.600 293.200 C 62.181 293.200,62.000 293.622,62.000 294.600 C 62.000 295.733,61.848 296.000,61.200 296.000 C 60.634 296.000,60.400 296.267,60.400 296.911 C 60.400 297.412,60.040 298.130,59.600 298.507 C 59.160 298.884,58.800 299.548,58.800 299.982 C 58.800 300.416,58.440 300.965,58.000 301.200 C 57.487 301.474,57.200 302.038,57.200 302.767 C 57.200 303.570,56.964 303.968,56.400 304.116 C 55.794 304.275,55.600 304.662,55.600 305.716 C 55.600 306.770,55.406 307.157,54.800 307.316 C 54.187 307.476,54.000 307.862,54.000 308.963 C 54.000 310.133,53.852 310.400,53.200 310.400 C 52.558 310.400,52.400 310.667,52.400 311.753 C 52.400 312.770,52.201 313.159,51.600 313.316 C 50.994 313.475,50.800 313.862,50.800 314.916 C 50.800 315.970,50.606 316.357,50.000 316.516 C 49.394 316.675,49.200 317.062,49.200 318.116 C 49.200 319.170,49.006 319.557,48.400 319.716 C 47.960 319.831,47.600 320.212,47.600 320.563 C 47.600 320.913,47.240 321.560,46.800 322.000 C 46.360 322.440,46.000 323.166,46.000 323.613 C 46.000 324.059,45.730 324.529,45.400 324.655 C 45.030 324.797,44.800 325.405,44.800 326.243 C 44.800 327.333,44.643 327.600,44.000 327.600 C 43.355 327.600,43.200 327.867,43.200 328.973 C 43.200 329.995,42.995 330.411,42.400 330.600 C 41.812 330.787,41.600 331.205,41.600 332.180 C 41.600 333.170,41.397 333.560,40.800 333.716 C 40.187 333.876,40.000 334.262,40.000 335.363 C 40.000 336.533,39.852 336.800,39.200 336.800 C 38.533 336.800,38.400 337.067,38.400 338.400 C 38.400 339.733,38.267 340.000,37.600 340.000 C 36.978 340.000,36.800 340.267,36.800 341.197 C 36.800 341.960,36.510 342.574,36.000 342.893 C 35.560 343.168,35.200 343.669,35.200 344.007 C 35.200 344.346,34.840 344.930,34.400 345.307 C 33.960 345.684,33.600 346.444,33.600 346.996 C 33.600 347.597,33.372 348.000,33.032 348.000 C 32.719 348.000,32.341 348.558,32.191 349.241 C 32.041 349.923,31.577 350.823,31.159 351.241 C 30.742 351.658,30.400 352.450,30.400 353.000 C 30.400 353.622,30.173 354.000,29.800 354.000 C 29.367 354.000,29.200 354.444,29.200 355.600 C 29.200 356.933,29.067 357.200,28.400 357.200 C 27.733 357.200,27.600 357.467,27.600 358.800 C 27.600 360.133,27.467 360.400,26.800 360.400 C 26.158 360.400,26.000 360.667,26.000 361.753 C 26.000 362.770,25.801 363.159,25.200 363.316 C 24.660 363.457,24.400 363.862,24.400 364.559 C 24.400 365.160,24.065 365.803,23.600 366.093 C 23.160 366.368,22.800 366.999,22.800 367.496 C 22.800 368.002,22.555 368.400,22.243 368.400 C 21.649 368.400,21.200 369.234,21.200 370.336 C 21.200 370.706,20.840 371.232,20.400 371.507 C 19.901 371.819,19.600 372.440,19.600 373.157 C 19.600 373.970,19.366 374.368,18.800 374.516 C 18.132 374.691,18.000 375.062,18.000 376.763 L 18.000 378.800 60.200 378.800 C 102.133 378.800,102.400 378.795,102.400 378.000 C 102.400 377.467,102.667 377.200,103.200 377.200 C 103.842 377.200,104.000 376.933,104.000 375.847 C 104.000 374.830,104.199 374.441,104.800 374.284 C 105.380 374.132,105.600 373.738,105.600 372.852 C 105.600 372.038,105.868 371.485,106.400 371.200 C 106.840 370.965,107.200 370.437,107.200 370.029 C 107.200 369.620,107.470 369.182,107.800 369.055 C 108.143 368.924,108.400 368.327,108.400 367.659 C 108.400 366.830,108.631 366.433,109.200 366.284 C 109.813 366.124,110.000 365.738,110.000 364.637 C 110.000 363.467,110.148 363.200,110.800 363.200 C 111.467 363.200,111.600 362.933,111.600 361.600 C 111.600 359.717,114.453 359.029,114.916 360.800 C 115.036 361.260,115.462 361.600,115.916 361.600 C 116.370 361.600,116.796 361.940,116.916 362.400 C 117.068 362.983,117.462 363.200,118.363 363.200 C 119.333 363.200,119.600 363.372,119.600 364.000 C 119.600 364.533,119.867 364.800,120.400 364.800 C 120.933 364.800,121.200 365.067,121.200 365.600 C 121.200 366.222,121.467 366.400,122.397 366.400 C 123.160 366.400,123.774 366.690,124.093 367.200 C 124.368 367.640,124.888 368.000,125.250 368.000 C 125.611 368.000,126.001 368.360,126.116 368.800 C 126.276 369.413,126.662 369.600,127.763 369.600 C 128.933 369.600,129.200 369.748,129.200 370.400 C 129.200 370.918,129.467 371.200,129.957 371.200 C 130.374 371.200,130.809 371.447,130.925 371.749 C 131.041 372.050,131.605 372.415,132.178 372.559 C 132.751 372.703,133.576 373.176,134.010 373.610 C 134.445 374.045,135.231 374.400,135.757 374.400 C 136.284 374.400,136.818 374.670,136.945 375.000 C 137.089 375.377,137.701 375.600,138.587 375.600 C 139.733 375.600,140.000 375.751,140.000 376.400 C 140.000 377.067,140.267 377.200,141.600 377.200 C 142.933 377.200,143.200 377.333,143.200 378.000 C 143.200 378.675,143.467 378.800,144.904 378.800 C 146.174 378.800,146.735 379.003,147.107 379.600 C 147.467 380.176,148.040 380.400,149.157 380.400 C 150.370 380.400,150.752 380.574,150.916 381.200 C 151.094 381.880,151.462 382.000,153.363 382.000 C 155.333 382.000,155.600 382.095,155.600 382.800 C 155.600 383.511,155.867 383.600,158.000 383.600 C 160.133 383.600,160.400 383.689,160.400 384.400 C 160.400 385.103,160.667 385.200,162.600 385.200 C 164.267 385.200,164.994 385.394,165.600 386.000 C 166.244 386.644,166.933 386.800,169.138 386.800 C 171.368 386.800,172.010 386.948,172.600 387.600 C 173.222 388.287,173.832 388.400,176.918 388.400 C 179.879 388.400,180.602 388.523,181.023 389.100 C 182.020 390.464,224.000 390.342,224.000 388.975 C 224.000 388.518,224.732 388.400,227.581 388.400 C 230.953 388.400,233.200 387.895,233.200 387.136 C 233.200 386.951,234.355 386.800,235.767 386.800 C 238.692 386.800,239.600 386.553,239.600 385.757 C 239.600 385.343,240.215 385.200,242.000 385.200 C 244.133 385.200,244.400 385.111,244.400 384.400 C 244.400 383.689,244.667 383.600,246.800 383.600 C 248.933 383.600,249.200 383.511,249.200 382.800 C 249.200 382.095,249.467 382.000,251.437 382.000 C 253.338 382.000,253.706 381.880,253.884 381.200 C 254.048 380.573,254.430 380.400,255.647 380.400 C 256.667 380.400,257.475 380.125,258.000 379.600 C 258.495 379.105,259.333 378.800,260.200 378.800 C 261.333 378.800,261.600 378.648,261.600 378.000 C 261.600 377.333,261.867 377.200,263.200 377.200 C 264.533 377.200,264.800 377.067,264.800 376.400 C 264.800 375.733,265.067 375.600,266.400 375.600 C 267.556 375.600,268.000 375.433,268.000 375.000 C 268.000 374.629,268.376 374.400,268.984 374.400 C 269.526 374.400,270.291 374.061,270.684 373.647 C 271.078 373.232,271.985 372.768,272.700 372.615 C 273.426 372.459,274.000 372.086,274.000 371.768 C 274.000 371.456,274.360 371.200,274.800 371.200 C 275.333 371.200,275.600 370.933,275.600 370.400 C 275.600 369.733,275.867 369.600,277.200 369.600 C 278.533 369.600,278.800 369.467,278.800 368.800 C 278.800 368.267,279.067 368.000,279.600 368.000 C 280.040 368.000,280.760 367.640,281.200 367.200 C 281.640 366.760,282.287 366.400,282.637 366.400 C 282.988 366.400,283.369 366.040,283.484 365.600 C 283.600 365.157,284.030 364.800,284.447 364.800 C 284.933 364.800,285.200 364.517,285.200 364.000 C 285.200 363.352,285.467 363.200,286.600 363.200 C 287.588 363.200,288.000 363.020,288.000 362.590 C 288.000 362.255,288.450 361.809,289.000 361.600 C 289.550 361.391,290.000 360.945,290.000 360.610 C 290.000 360.267,290.350 360.000,290.800 360.000 C 291.333 360.000,291.600 359.733,291.600 359.200 C 291.600 358.667,291.867 358.400,292.400 358.400 C 293.067 358.400,293.200 358.667,293.200 360.000 C 293.200 361.333,293.333 361.600,294.000 361.600 C 294.667 361.600,294.800 361.867,294.800 363.200 C 294.800 364.356,294.967 364.800,295.400 364.800 C 295.768 364.800,296.000 365.174,296.000 365.767 C 296.000 367.148,296.398 368.000,297.043 368.000 C 297.368 368.000,297.600 368.410,297.600 368.984 C 297.600 369.526,297.939 370.291,298.353 370.684 C 298.768 371.078,299.232 371.985,299.385 372.700 C 299.538 373.415,299.899 374.000,300.187 374.000 C 300.475 374.000,300.826 374.613,300.966 375.361 C 301.107 376.110,301.487 376.824,301.811 376.949 C 302.135 377.073,302.400 377.541,302.400 377.987 C 302.400 378.799,302.449 378.800,344.600 378.800 L 386.800 378.800 386.800 376.649 C 386.800 375.111,386.607 374.341,386.123 373.949 C 385.540 373.476,385.493 373.483,385.787 374.000 C 385.991 374.358,385.981 374.465,385.764 374.267 C 385.383 373.917,385.332 373.729,385.250 372.363 C 385.222 371.888,384.853 371.434,384.400 371.316 C 383.794 371.157,383.600 370.770,383.600 369.716 C 383.600 368.674,383.405 368.274,382.822 368.122 C 382.263 367.975,382.009 367.507,381.922 366.459 C 381.840 365.483,381.601 365.000,381.200 365.000 C 380.795 365.000,380.560 364.511,380.476 363.500 C 380.379 362.325,380.184 362.000,379.576 362.000 C 378.937 362.000,378.800 361.717,378.800 360.400 C 378.800 359.067,378.667 358.800,378.000 358.800 C 377.348 358.800,377.200 358.533,377.200 357.363 C 377.200 356.262,377.013 355.876,376.400 355.716 C 375.891 355.583,375.600 355.170,375.600 354.582 C 375.600 354.073,375.330 353.387,375.000 353.057 C 374.670 352.727,374.400 352.214,374.400 351.917 C 374.400 351.621,374.040 351.070,373.600 350.693 C 373.160 350.316,372.800 349.539,372.800 348.966 C 372.800 348.262,372.542 347.858,372.000 347.716 C 371.426 347.566,371.200 347.170,371.200 346.316 C 371.200 345.462,370.974 345.066,370.400 344.916 C 369.773 344.752,369.600 344.370,369.600 343.153 C 369.600 341.867,369.463 341.600,368.800 341.600 C 368.148 341.600,368.000 341.333,368.000 340.163 C 368.000 339.062,367.813 338.676,367.200 338.516 C 366.594 338.357,366.400 337.970,366.400 336.916 C 366.400 335.862,366.206 335.475,365.600 335.316 C 365.026 335.166,364.800 334.770,364.800 333.916 C 364.800 333.062,364.574 332.666,364.000 332.516 C 363.482 332.381,363.200 331.970,363.200 331.353 C 363.200 330.829,363.009 330.400,362.776 330.400 C 362.543 330.400,362.465 330.219,362.602 329.997 C 362.739 329.776,362.569 329.486,362.225 329.354 C 361.881 329.222,361.600 328.802,361.600 328.419 C 361.600 328.037,361.240 327.398,360.800 327.000 C 360.360 326.602,360.000 325.854,360.000 325.338 C 360.000 324.667,359.773 324.400,359.200 324.400 C 358.533 324.400,358.400 324.133,358.400 322.800 C 358.400 321.644,358.233 321.200,357.800 321.200 C 357.432 321.200,357.200 320.826,357.200 320.233 C 357.200 318.852,356.802 318.000,356.157 318.000 C 355.832 318.000,355.600 317.590,355.600 317.016 C 355.600 316.474,355.241 315.696,354.801 315.287 C 354.362 314.878,353.961 314.033,353.909 313.410 C 353.852 312.716,353.541 312.205,353.108 312.092 C 352.680 311.980,352.400 311.529,352.400 310.953 C 352.400 310.429,352.040 309.640,351.600 309.200 C 351.160 308.760,350.800 308.130,350.800 307.800 C 350.800 307.470,350.609 307.200,350.376 307.200 C 350.143 307.200,350.065 307.019,350.202 306.797 C 350.339 306.576,350.169 306.286,349.825 306.154 C 349.481 306.022,349.200 305.484,349.200 304.957 C 349.200 304.267,348.977 304.000,348.400 304.000 C 347.733 304.000,347.600 303.733,347.600 302.400 C 347.600 301.067,347.467 300.800,346.800 300.800 C 346.148 300.800,346.000 300.533,346.000 299.363 C 346.000 298.262,345.813 297.876,345.200 297.716 C 344.599 297.559,344.400 297.170,344.400 296.153 C 344.400 295.067,344.242 294.800,343.600 294.800 C 342.933 294.800,342.800 294.533,342.800 293.200 C 342.800 292.101,342.626 291.600,342.245 291.600 C 341.925 291.600,341.576 290.997,341.422 290.179 C 341.276 289.397,340.896 288.658,340.578 288.536 C 339.662 288.185,339.766 282.459,340.700 281.777 C 341.257 281.370,341.429 280.522,341.540 277.632 C 341.647 274.852,341.811 274.000,342.240 274.000 C 342.695 274.000,342.800 272.872,342.800 267.963 C 342.800 262.262,342.845 261.913,343.600 261.716 C 344.379 261.512,344.400 261.170,344.400 248.580 C 344.400 236.005,344.378 235.647,343.600 235.400 C 342.849 235.162,342.800 234.795,342.800 229.393 C 342.800 224.891,342.679 223.570,342.242 223.320 C 341.850 223.095,341.642 221.951,341.542 219.468 C 341.430 216.676,341.253 215.828,340.700 215.424 C 340.182 215.045,340.000 214.346,340.000 212.731 C 340.000 211.161,339.792 210.328,339.259 209.755 C 338.809 209.272,338.436 208.115,338.311 206.812 C 338.183 205.481,337.857 204.484,337.452 204.189 C 337.061 203.903,336.800 203.143,336.800 202.289 C 336.800 200.473,336.461 199.600,335.757 199.600 C 335.372 199.600,335.200 199.096,335.200 197.963 C 335.200 196.662,335.036 196.282,334.400 196.116 C 333.735 195.942,333.600 195.570,333.600 193.916 C 333.600 192.262,333.465 191.890,332.800 191.716 C 332.173 191.552,332.000 191.170,332.000 189.953 C 332.000 188.667,331.863 188.400,331.200 188.400 C 330.533 188.400,330.400 188.133,330.400 186.800 C 330.400 185.467,330.267 185.200,329.600 185.200 C 328.948 185.200,328.800 184.933,328.800 183.763 C 328.800 182.662,328.613 182.276,328.000 182.116 C 327.399 181.959,327.200 181.570,327.200 180.553 C 327.200 179.467,327.042 179.200,326.400 179.200 C 325.751 179.200,325.600 178.933,325.600 177.787 C 325.600 176.945,325.374 176.288,325.039 176.160 C 324.731 176.041,324.388 175.597,324.277 175.172 C 324.166 174.748,323.788 174.400,323.437 174.400 C 323.030 174.400,322.800 174.051,322.800 173.433 C 322.800 172.083,322.406 171.200,321.804 171.200 C 321.523 171.200,321.199 170.840,321.084 170.400 C 320.969 169.960,320.588 169.600,320.237 169.600 C 319.778 169.600,319.600 169.217,319.600 168.227 C 319.600 167.231,319.392 166.788,318.843 166.614 C 318.427 166.482,317.994 166.019,317.881 165.587 C 317.767 165.154,317.388 164.800,317.037 164.800 C 316.625 164.800,316.400 164.449,316.400 163.803 C 316.400 163.240,316.052 162.590,315.600 162.307 C 315.160 162.032,314.800 161.491,314.800 161.104 C 314.800 160.667,314.497 160.400,314.000 160.400 C 313.467 160.400,313.200 160.133,313.200 159.600 C 313.200 159.067,312.933 158.800,312.400 158.800 C 311.867 158.800,311.600 158.533,311.600 158.000 C 311.600 157.467,311.333 157.200,310.800 157.200 C 310.265 157.200,310.000 156.933,310.000 156.396 C 310.000 155.954,309.640 155.284,309.200 154.907 C 308.760 154.530,308.400 153.914,308.400 153.538 C 308.400 153.162,308.040 152.740,307.600 152.600 C 307.160 152.460,306.800 152.179,306.800 151.975 C 306.800 151.492,300.140 144.800,299.660 144.800 C 299.458 144.800,299.199 144.440,299.084 144.000 C 298.959 143.521,298.538 143.200,298.037 143.200 C 297.577 143.200,297.200 142.949,297.200 142.643 C 297.200 142.031,296.359 141.600,295.167 141.600 C 294.667 141.600,294.400 141.322,294.400 140.800 C 294.400 140.267,294.133 140.000,293.600 140.000 C 293.067 140.000,292.800 139.733,292.800 139.200 C 292.800 138.760,292.551 138.400,292.247 138.400 C 291.942 138.400,291.599 138.040,291.484 137.600 C 291.364 137.140,290.938 136.800,290.484 136.800 C 290.030 136.800,289.604 136.460,289.484 136.000 C 289.332 135.417,288.938 135.200,288.037 135.200 C 287.067 135.200,286.800 135.028,286.800 134.400 C 286.800 133.883,286.533 133.600,286.047 133.600 C 285.630 133.600,285.200 133.243,285.084 132.800 C 284.969 132.360,284.588 132.000,284.237 132.000 C 283.887 132.000,283.240 131.640,282.800 131.200 C 282.360 130.760,281.640 130.400,281.200 130.400 C 280.756 130.400,280.400 130.133,280.400 129.800 C 280.400 129.470,280.080 129.200,279.689 129.200 C 279.298 129.200,278.670 128.840,278.293 128.400 C 277.916 127.960,277.156 127.600,276.604 127.600 C 275.867 127.600,275.600 127.387,275.600 126.800 C 275.600 126.158,275.333 126.000,274.247 126.000 C 273.230 126.000,272.841 125.801,272.684 125.200 C 272.524 124.587,272.138 124.400,271.037 124.400 C 269.867 124.400,269.600 124.252,269.600 123.600 C 269.600 122.978,269.333 122.800,268.403 122.800 C 267.640 122.800,267.026 122.510,266.707 122.000 C 266.351 121.430,265.774 121.200,264.704 121.200 C 263.467 121.200,263.200 121.058,263.200 120.400 C 263.200 119.733,262.933 119.600,261.600 119.600 C 260.267 119.600,260.000 119.467,260.000 118.800 C 260.000 118.155,259.733 118.000,258.620 118.000 C 257.759 118.000,257.102 117.754,256.874 117.346 C 256.639 116.926,255.787 116.624,254.488 116.499 C 252.945 116.351,252.422 116.127,252.272 115.552 C 252.121 114.978,251.706 114.800,250.513 114.800 C 249.504 114.800,248.647 114.517,248.092 114.000 C 247.620 113.560,246.956 113.200,246.617 113.200 C 246.194 113.200,246.000 112.811,246.000 111.963 C 246.000 111.062,245.783 110.668,245.200 110.516 C 244.603 110.360,244.400 109.970,244.400 108.980 C 244.400 108.005,244.188 107.587,243.600 107.400 C 243.003 107.210,242.800 106.795,242.800 105.760 C 242.800 104.898,242.574 104.288,242.200 104.145 C 241.870 104.018,241.600 103.574,241.600 103.157 C 241.600 102.741,241.240 102.040,240.800 101.600 C 240.360 101.160,240.000 100.536,240.000 100.214 C 240.000 99.892,239.640 99.435,239.200 99.200 C 238.668 98.915,238.400 98.362,238.400 97.548 C 238.400 96.662,238.180 96.268,237.600 96.116 C 236.999 95.959,236.800 95.570,236.800 94.553 C 236.800 93.467,236.642 93.200,236.000 93.200 C 235.348 93.200,235.200 92.933,235.200 91.763 C 235.200 90.662,235.013 90.276,234.400 90.116 C 233.794 89.957,233.600 89.570,233.600 88.516 C 233.600 87.462,233.406 87.075,232.800 86.916 C 232.194 86.757,232.000 86.370,232.000 85.316 C 232.000 84.262,231.806 83.875,231.200 83.716 C 230.626 83.566,230.400 83.170,230.400 82.316 C 230.400 81.462,230.174 81.066,229.600 80.916 C 229.157 80.800,228.800 80.370,228.800 79.953 C 228.800 79.539,228.440 78.840,228.000 78.400 C 227.560 77.960,227.200 77.240,227.200 76.800 C 227.200 76.267,226.933 76.000,226.400 76.000 C 225.733 76.000,225.600 75.733,225.600 74.400 C 225.600 73.244,225.433 72.800,225.000 72.800 C 224.578 72.800,224.400 72.374,224.400 71.363 C 224.400 70.262,224.213 69.876,223.600 69.716 C 223.044 69.570,222.800 69.170,222.800 68.402 C 222.800 67.287,221.949 66.184,221.463 66.670 C 221.318 66.815,221.200 66.363,221.200 65.667 C 221.200 64.933,220.863 64.063,220.400 63.600 C 219.960 63.160,219.600 62.333,219.600 61.763 C 219.600 61.062,219.341 60.657,218.800 60.516 C 218.282 60.381,218.000 59.970,218.000 59.353 C 218.000 58.829,217.640 58.040,217.200 57.600 C 216.760 57.160,216.400 56.530,216.400 56.200 C 216.400 55.870,216.040 55.240,215.600 54.800 C 215.160 54.360,214.800 53.640,214.800 53.200 C 214.800 52.667,214.533 52.400,214.000 52.400 C 213.348 52.400,213.200 52.133,213.200 50.963 C 213.200 49.862,213.013 49.476,212.400 49.316 C 211.794 49.157,211.600 48.770,211.600 47.716 C 211.600 46.662,211.406 46.275,210.800 46.116 C 210.199 45.959,210.000 45.570,210.000 44.553 C 210.000 43.467,209.842 43.200,209.200 43.200 C 208.533 43.200,208.400 42.933,208.400 41.600 C 208.400 40.501,208.226 40.000,207.845 40.000 C 207.525 40.000,207.176 39.397,207.022 38.579 C 206.876 37.797,206.496 37.058,206.178 36.936 C 205.860 36.814,205.600 36.374,205.600 35.957 C 205.600 34.660,204.161 33.600,202.400 33.600 C 201.067 33.600,200.800 33.733,200.800 34.400 M211.000 129.191 C 216.673 129.424,220.368 129.753,221.400 130.117 C 222.280 130.427,224.238 130.805,225.752 130.957 C 227.265 131.109,228.975 131.471,229.552 131.762 C 230.128 132.053,231.573 132.416,232.763 132.568 C 233.952 132.720,235.428 133.104,236.043 133.422 C 236.657 133.740,237.577 134.000,238.086 134.000 C 238.595 134.000,239.684 134.360,240.504 134.800 C 241.325 135.240,242.315 135.600,242.704 135.600 C 243.094 135.600,244.084 135.960,244.904 136.400 C 245.725 136.840,246.603 137.200,246.855 137.200 C 247.106 137.200,248.142 137.580,249.156 138.043 C 250.170 138.507,251.810 139.254,252.800 139.702 C 253.790 140.151,254.870 140.672,255.200 140.860 C 255.530 141.048,256.250 141.381,256.800 141.601 C 257.350 141.820,258.070 142.183,258.400 142.408 C 258.730 142.632,259.540 143.095,260.200 143.436 C 260.860 143.776,262.120 144.490,263.000 145.023 C 263.880 145.555,265.095 146.190,265.700 146.434 C 266.305 146.679,266.800 147.009,266.800 147.168 C 266.800 147.491,269.899 149.600,270.374 149.600 C 270.540 149.600,271.002 149.960,271.400 150.400 C 271.798 150.840,272.365 151.200,272.659 151.200 C 272.953 151.200,273.418 151.560,273.693 152.000 C 273.968 152.440,274.425 152.800,274.709 152.800 C 274.993 152.800,275.329 153.070,275.455 153.400 C 275.582 153.730,275.854 154.000,276.060 154.000 C 276.445 154.000,280.461 157.238,282.600 159.272 C 283.260 159.900,285.105 161.655,286.700 163.171 C 288.295 164.688,289.600 166.125,289.600 166.364 C 289.600 166.604,289.849 166.800,290.154 166.800 C 290.459 166.800,291.011 167.262,291.381 167.827 C 291.751 168.391,292.446 169.241,292.927 169.715 C 293.407 170.189,294.652 171.662,295.693 172.989 C 296.734 174.315,297.859 175.685,298.193 176.034 C 298.527 176.382,298.800 176.817,298.800 177.000 C 298.800 177.183,299.069 177.618,299.398 177.966 C 300.650 179.293,302.000 181.131,302.000 181.509 C 302.000 181.725,302.289 182.142,302.642 182.435 C 302.995 182.727,303.457 183.335,303.669 183.784 C 304.497 185.534,305.486 187.143,306.128 187.785 C 306.498 188.155,306.800 188.810,306.800 189.241 C 306.800 189.672,307.059 190.124,307.376 190.246 C 307.692 190.367,308.064 190.979,308.201 191.606 C 308.339 192.232,308.698 192.950,309.000 193.200 C 309.302 193.450,309.664 194.183,309.806 194.828 C 309.948 195.472,310.217 196.000,310.405 196.000 C 310.593 196.000,310.867 196.405,311.014 196.900 C 311.341 197.996,312.604 200.875,313.637 202.879 C 314.057 203.693,314.401 204.683,314.403 205.079 C 314.404 205.476,314.763 206.340,315.200 207.000 C 315.637 207.660,315.996 208.585,315.997 209.056 C 315.999 209.527,316.356 210.697,316.791 211.656 C 317.226 212.615,317.586 213.785,317.591 214.256 C 317.596 214.727,317.956 215.897,318.391 216.856 C 318.826 217.815,319.186 219.146,319.191 219.814 C 319.196 220.481,319.560 222.052,320.000 223.304 C 320.440 224.556,320.800 226.552,320.800 227.740 C 320.800 228.928,321.107 230.687,321.483 231.650 C 322.507 234.274,322.541 262.292,321.524 265.600 C 321.151 266.810,320.758 269.091,320.649 270.670 C 320.541 272.248,320.195 274.048,319.882 274.670 C 319.568 275.291,319.205 276.748,319.074 277.907 C 318.943 279.065,318.558 280.410,318.218 280.896 C 317.878 281.381,317.594 282.323,317.586 282.989 C 317.579 283.655,317.225 284.920,316.800 285.800 C 316.375 286.680,316.021 287.763,316.014 288.206 C 316.006 288.649,315.640 289.684,315.200 290.504 C 314.760 291.325,314.400 292.336,314.400 292.750 C 314.400 293.163,314.142 293.717,313.826 293.979 C 313.510 294.241,313.127 295.028,312.976 295.728 C 312.737 296.827,311.960 298.584,310.731 300.800 C 310.548 301.130,310.219 301.850,309.999 302.400 C 309.780 302.950,309.429 303.670,309.220 304.000 C 309.011 304.330,308.457 305.360,307.989 306.289 C 307.522 307.217,306.721 308.594,306.210 309.347 C 305.698 310.101,305.160 311.096,305.013 311.559 C 304.866 312.021,304.600 312.400,304.422 312.400 C 304.243 312.400,303.873 312.940,303.600 313.600 C 303.327 314.260,302.967 314.800,302.800 314.800 C 302.633 314.800,302.273 315.340,302.000 316.000 C 301.727 316.660,301.339 317.200,301.139 317.200 C 300.939 317.200,300.659 317.515,300.518 317.900 C 300.377 318.285,299.438 319.678,298.431 320.996 C 290.720 331.084,279.231 341.965,269.699 348.207 C 268.874 348.747,268.003 349.352,267.762 349.552 C 267.522 349.751,266.802 350.209,266.162 350.570 C 265.523 350.930,264.460 351.572,263.800 351.996 C 263.140 352.421,261.299 353.416,259.709 354.208 C 258.119 354.999,256.722 355.803,256.604 355.993 C 256.487 356.183,255.865 356.454,255.223 356.595 C 254.581 356.736,253.850 357.098,253.600 357.400 C 253.350 357.702,252.572 358.070,251.872 358.219 C 251.173 358.367,250.330 358.719,250.000 359.000 C 249.670 359.281,248.770 359.641,248.000 359.800 C 247.230 359.959,246.330 360.319,246.000 360.600 C 245.670 360.881,244.770 361.244,244.000 361.407 C 243.230 361.569,242.245 361.949,241.811 362.251 C 241.377 362.553,240.567 362.806,240.011 362.814 C 239.455 362.821,238.280 363.175,237.400 363.600 C 236.520 364.025,235.312 364.379,234.715 364.386 C 234.118 364.394,232.716 364.760,231.600 365.200 C 230.484 365.640,228.992 366.004,228.285 366.009 C 227.578 366.015,225.662 366.375,224.027 366.809 C 222.392 367.244,219.933 367.600,218.562 367.600 C 217.192 367.600,214.660 367.870,212.935 368.200 C 208.733 369.004,195.959 369.014,192.575 368.216 C 191.241 367.902,188.408 367.466,186.279 367.248 C 184.150 367.030,182.266 366.764,182.093 366.657 C 181.919 366.550,180.263 366.255,178.412 366.002 C 176.560 365.748,174.549 365.284,173.943 364.970 C 173.336 364.657,172.448 364.400,171.968 364.400 C 171.164 364.400,165.653 362.756,163.800 361.964 C 163.360 361.776,162.235 361.347,161.300 361.011 C 158.009 359.828,156.188 359.151,155.027 358.678 C 152.952 357.833,144.265 353.351,142.200 352.061 C 141.100 351.373,139.750 350.594,139.200 350.328 C 138.650 350.062,137.450 349.249,136.533 348.522 C 135.616 347.795,134.749 347.200,134.606 347.200 C 134.364 347.200,131.966 345.497,130.945 344.600 C 129.447 343.284,128.522 342.530,127.755 342.000 C 124.279 339.595,113.611 329.109,110.136 324.680 C 108.720 322.876,107.165 320.891,106.681 320.270 C 106.196 319.648,105.485 318.765,105.100 318.308 C 104.715 317.851,104.400 317.338,104.400 317.167 C 104.400 316.997,104.175 316.619,103.900 316.329 C 103.163 315.549,101.200 312.602,101.200 312.274 C 101.200 312.119,100.607 311.139,99.882 310.096 C 98.071 307.492,92.877 296.835,91.159 292.200 C 90.670 290.880,89.939 289.068,89.535 288.174 C 89.131 287.279,88.800 286.235,88.800 285.854 C 88.800 285.472,88.551 284.674,88.247 284.080 C 87.943 283.486,87.563 282.208,87.402 281.241 C 87.241 280.273,86.880 278.923,86.599 278.241 C 86.318 277.558,85.956 276.014,85.794 274.810 C 85.633 273.605,85.247 272.233,84.938 271.761 C 84.628 271.289,84.213 269.125,84.014 266.951 C 83.816 264.778,83.453 262.010,83.209 260.800 C 82.516 257.377,82.616 239.206,83.346 235.787 C 83.673 234.254,84.038 231.517,84.157 229.705 C 84.277 227.893,84.650 225.877,84.987 225.225 C 85.324 224.573,85.608 223.356,85.618 222.520 C 85.627 221.684,85.912 220.280,86.251 219.400 C 86.590 218.520,87.038 216.832,87.247 215.648 C 87.456 214.465,87.891 213.119,88.214 212.659 C 88.536 212.199,88.800 211.411,88.800 210.910 C 88.800 210.408,89.160 209.325,89.600 208.504 C 90.040 207.684,90.400 206.694,90.400 206.304 C 90.400 205.915,90.760 204.925,91.200 204.104 C 91.640 203.284,92.000 202.316,92.000 201.955 C 92.000 201.594,92.270 201.074,92.600 200.800 C 92.930 200.526,93.200 200.114,93.200 199.885 C 93.200 199.401,96.784 192.160,98.191 189.800 C 98.716 188.920,99.432 187.660,99.783 187.000 C 100.895 184.910,101.452 184.026,102.136 183.271 C 102.501 182.867,102.800 182.354,102.800 182.130 C 102.800 181.907,103.160 181.398,103.600 181.000 C 104.040 180.602,104.400 180.115,104.400 179.919 C 104.400 177.769,118.573 162.654,128.246 154.488 C 130.269 152.780,140.661 145.823,142.205 145.143 C 142.862 144.854,143.536 144.402,143.702 144.140 C 143.869 143.877,144.529 143.547,145.169 143.407 C 145.809 143.266,146.429 142.902,146.546 142.598 C 146.662 142.293,147.397 141.924,148.179 141.778 C 148.961 141.631,149.600 141.365,149.600 141.187 C 149.600 141.008,150.270 140.641,151.089 140.371 C 151.908 140.100,152.821 139.636,153.118 139.340 C 153.414 139.043,153.915 138.800,154.230 138.800 C 154.545 138.800,155.475 138.440,156.296 138.000 C 157.116 137.560,158.016 137.200,158.296 137.200 C 158.575 137.200,159.475 136.840,160.296 136.400 C 161.116 135.960,162.106 135.600,162.496 135.600 C 162.885 135.600,163.875 135.240,164.696 134.800 C 165.516 134.360,166.557 134.000,167.008 134.000 C 167.459 134.000,168.852 133.640,170.104 133.200 C 171.356 132.760,172.843 132.400,173.410 132.400 C 173.976 132.400,174.948 132.137,175.568 131.816 C 176.189 131.495,177.935 131.120,179.448 130.983 C 180.962 130.846,182.920 130.458,183.800 130.122 C 184.891 129.706,187.755 129.418,192.800 129.219 C 196.870 129.059,200.650 128.905,201.200 128.879 C 201.750 128.852,206.160 128.993,211.000 129.191 M211.400 166.367 C 208.064 166.707,208.383 166.435,191.435 183.400 C 172.335 202.519,175.248 200.873,169.909 195.563 C 167.497 193.163,165.308 191.200,165.045 191.200 C 164.782 191.200,163.932 190.510,163.156 189.666 C 161.230 187.571,160.343 187.403,159.153 188.909 C 158.629 189.572,157.910 190.404,157.556 190.758 C 156.965 191.348,157.527 192.020,164.456 199.023 C 168.605 203.216,172.000 206.818,172.000 207.027 C 172.000 207.236,167.974 211.429,163.054 216.346 C 152.558 226.834,154.349 226.439,147.666 219.743 C 142.494 214.561,142.904 214.747,140.818 216.631 C 138.197 218.999,138.240 219.167,142.573 223.486 C 145.584 226.487,146.363 227.488,146.167 228.104 C 146.030 228.537,139.908 234.945,132.564 242.345 C 125.220 249.745,118.923 256.130,118.571 256.534 C 117.804 257.415,117.024 264.381,117.625 264.984 C 117.869 265.228,118.622 264.688,119.704 263.492 C 120.637 262.461,129.027 253.949,138.349 244.577 C 157.258 225.568,155.884 226.585,158.817 229.427 C 160.414 230.974,161.815 231.212,162.200 230.000 C 162.340 229.560,162.668 229.200,162.931 229.200 C 163.193 229.200,163.632 228.840,163.907 228.400 C 164.182 227.960,164.566 227.600,164.760 227.600 C 165.417 227.600,179.200 213.769,179.200 213.109 C 179.200 212.749,179.560 212.340,180.000 212.200 C 180.440 212.060,180.800 211.700,180.800 211.400 C 180.800 211.100,181.160 210.740,181.600 210.600 C 182.857 210.201,182.543 208.907,180.800 207.304 C 177.920 204.656,177.072 205.769,197.631 185.221 C 207.768 175.089,216.273 166.782,216.531 166.760 C 217.180 166.705,215.143 166.075,214.400 166.101 C 214.070 166.112,212.720 166.232,211.400 166.367 M264.822 297.012 L 263.444 297.985 269.470 304.093 C 272.784 307.452,275.682 310.551,275.909 310.980 C 276.270 311.664,275.266 312.819,267.790 320.325 C 259.791 328.356,259.286 328.950,259.693 329.845 C 260.226 331.013,264.431 331.271,265.566 330.205 C 268.054 327.869,280.051 315.835,281.100 314.624 C 282.707 312.768,282.952 309.823,281.600 308.600 C 281.160 308.202,280.800 307.745,280.800 307.584 C 280.800 307.424,279.202 305.697,277.248 303.746 C 269.208 295.720,267.762 294.936,264.822 297.012 " stroke="none" fill="#0a647a" fill-rule="evenodd"></path><path id="path1" d="M139.800 181.531 C 135.014 182.603,132.262 187.232,132.983 193.000 C 133.260 195.222,141.053 204.418,142.647 204.404 C 142.893 204.402,145.910 201.514,149.351 197.987 C 156.673 190.482,156.517 191.401,151.329 186.359 C 146.673 181.834,143.807 180.634,139.800 181.531 M172.381 220.724 L 165.400 227.559 207.251 269.430 L 249.102 311.301 255.751 304.667 C 259.408 301.018,262.397 297.890,262.394 297.716 C 262.391 297.542,243.763 278.774,220.997 256.009 C 198.232 233.245,179.551 214.454,179.485 214.254 C 179.418 214.053,176.221 216.964,172.381 220.724 M95.600 226.286 C 91.926 227.467,91.325 227.848,87.900 231.166 C 83.866 235.073,83.930 234.856,85.911 237.887 C 87.686 240.604,88.164 241.385,89.042 243.000 C 90.930 246.475,91.268 246.529,96.015 244.106 C 100.186 241.977,101.005 241.022,101.385 237.843 C 101.520 236.719,101.925 234.595,102.287 233.121 L 102.943 230.442 101.372 228.676 C 100.063 227.205,98.574 226.057,97.600 225.766 C 97.490 225.733,96.590 225.967,95.600 226.286 M263.053 255.881 C 262.627 256.306,262.770 257.450,263.398 258.654 C 264.180 260.154,264.181 264.792,263.400 266.662 C 262.565 268.661,262.604 269.761,263.499 269.417 C 266.786 268.156,273.845 268.174,275.251 269.447 C 276.284 270.381,276.737 269.158,275.993 267.441 C 275.114 265.412,275.013 260.146,275.819 258.359 C 276.625 256.570,276.375 255.381,275.306 255.923 C 272.560 257.315,266.683 257.331,263.953 255.955 C 263.597 255.775,263.192 255.742,263.053 255.881 M308.200 260.332 C 306.990 261.489,301.318 261.897,298.087 261.059 C 295.392 260.359,294.947 260.782,295.808 263.223 C 296.604 265.479,296.620 268.956,295.846 271.107 C 295.105 273.162,295.362 274.146,296.561 273.845 C 301.641 272.570,306.349 272.773,308.151 274.345 C 308.996 275.082,308.976 274.482,308.009 270.200 C 307.533 268.093,307.796 263.537,308.466 262.279 C 308.961 261.350,308.750 259.806,308.200 260.332 M107.380 262.698 L 102.560 262.823 98.780 266.712 C 93.597 272.043,93.683 271.994,89.500 271.997 L 86.000 272.000 86.000 273.348 C 86.000 274.089,86.360 275.823,86.800 277.200 C 87.240 278.577,87.600 279.996,87.600 280.352 C 87.600 281.461,92.008 294.052,93.208 296.372 C 93.387 296.717,94.551 299.109,95.796 301.687 C 97.040 304.265,98.495 307.018,99.029 307.805 C 99.563 308.592,100.000 309.363,100.001 309.518 C 100.001 309.673,100.721 310.837,101.601 312.104 C 102.480 313.372,103.200 314.519,103.200 314.655 C 103.200 315.037,110.268 324.306,112.654 327.053 C 120.244 335.791,130.989 344.941,139.600 350.000 C 140.370 350.452,141.540 351.169,142.200 351.592 C 144.350 352.970,153.716 357.644,157.200 359.076 C 162.814 361.385,165.158 362.161,171.400 363.783 C 172.720 364.126,174.610 364.676,175.600 365.006 C 176.590 365.335,177.857 365.603,178.416 365.602 C 178.975 365.601,180.466 365.869,181.731 366.199 C 182.995 366.528,185.553 366.915,187.415 367.058 L 190.800 367.318 190.800 358.967 L 190.800 350.617 187.500 347.300 L 184.200 343.984 184.000 334.652 C 183.846 327.474,183.671 325.165,183.240 324.647 C 182.933 324.277,181.431 322.720,179.905 321.187 L 177.128 318.400 172.568 318.400 L 168.008 318.400 164.304 314.805 L 160.600 311.209 151.470 311.205 L 142.341 311.200 139.970 308.939 L 137.600 306.678 137.600 299.668 L 137.600 292.657 134.666 289.826 C 130.705 286.004,130.801 286.273,130.796 278.926 L 130.792 272.600 129.496 270.986 C 128.783 270.099,126.805 268.001,125.100 266.325 C 123.395 264.649,122.000 263.080,122.000 262.839 C 122.000 261.999,120.967 262.410,119.502 263.832 C 117.867 265.420,117.200 265.346,117.200 263.576 L 117.200 262.400 114.700 262.486 C 113.325 262.534,110.031 262.629,107.380 262.698 M176.803 268.193 C 176.581 268.775,176.397 269.915,176.394 270.726 C 176.391 271.537,176.126 273.311,175.806 274.669 C 175.486 276.026,175.102 278.603,174.952 280.394 L 174.681 283.651 176.625 285.626 C 178.973 288.010,180.918 288.202,187.000 286.652 C 191.205 285.580,191.152 285.660,192.257 278.683 C 192.999 273.999,193.044 274.129,189.400 270.324 L 186.600 267.400 181.903 267.267 L 177.206 267.133 176.803 268.193 M146.884 270.500 C 145.663 272.937,144.557 280.383,145.223 281.681 C 145.714 282.638,148.785 285.598,149.288 285.599 C 149.447 285.600,150.977 284.764,152.688 283.742 C 154.400 282.720,156.160 281.680,156.600 281.432 C 157.040 281.183,158.165 280.487,159.100 279.885 L 160.800 278.790 160.800 274.675 C 160.800 269.336,161.175 269.600,153.588 269.600 C 147.504 269.600,147.323 269.624,146.884 270.500 " stroke="none" fill="#dbae57" fill-rule="evenodd"></path><path id="path2" d="M190.800 130.342 C 189.810 130.495,188.802 130.745,188.561 130.897 C 188.319 131.048,186.180 131.356,183.808 131.581 C 181.435 131.806,179.272 132.174,179.001 132.399 C 178.730 132.624,177.269 132.970,175.754 133.167 C 174.239 133.365,172.331 133.813,171.513 134.163 C 170.695 134.513,169.569 134.800,169.011 134.800 C 168.454 134.800,167.325 135.160,166.504 135.600 C 165.684 136.040,164.536 136.400,163.955 136.400 C 163.374 136.400,162.681 136.661,162.416 136.980 C 162.151 137.300,161.145 137.679,160.180 137.824 C 159.215 137.969,158.222 138.333,157.973 138.633 C 157.724 138.933,156.914 139.292,156.174 139.431 C 155.434 139.570,154.620 139.935,154.365 140.242 C 154.110 140.549,153.700 140.800,153.454 140.800 C 152.921 140.800,145.488 144.427,145.200 144.828 C 145.021 145.076,144.313 145.470,140.800 147.271 C 140.250 147.553,139.689 147.939,139.554 148.128 C 139.308 148.473,138.870 148.750,136.352 150.154 C 135.609 150.569,134.856 151.154,134.680 151.454 C 134.504 151.754,134.099 152.000,133.780 152.000 C 133.461 152.000,133.200 152.162,133.200 152.360 C 133.200 152.559,132.615 153.095,131.900 153.551 C 129.704 154.954,129.126 155.370,128.222 156.200 C 127.743 156.640,126.192 157.980,124.775 159.178 C 121.818 161.679,115.353 168.163,113.000 170.987 C 112.120 172.044,110.725 173.618,109.900 174.486 C 109.075 175.353,108.400 176.215,108.400 176.401 C 108.400 176.587,107.974 177.247,107.453 177.869 C 106.242 179.317,102.000 185.551,102.000 185.884 C 102.000 186.023,101.721 186.446,101.379 186.823 C 100.695 187.579,98.383 191.746,97.342 194.100 C 96.977 194.925,96.546 195.600,96.384 195.600 C 96.222 195.600,95.974 196.212,95.834 196.960 C 95.694 197.708,95.314 198.540,94.989 198.809 C 94.665 199.078,94.398 199.501,94.396 199.749 C 94.394 199.997,93.950 201.100,93.409 202.200 C 92.868 203.300,92.414 204.470,92.400 204.800 C 92.386 205.130,92.110 205.749,91.787 206.176 C 91.464 206.604,91.200 207.330,91.200 207.792 C 91.200 208.253,90.860 209.297,90.445 210.111 C 90.030 210.925,89.567 212.268,89.416 213.096 C 89.265 213.923,88.910 214.960,88.628 215.400 C 88.346 215.840,87.986 217.241,87.827 218.513 C 87.669 219.785,87.284 221.315,86.972 221.913 C 86.660 222.511,86.400 223.720,86.393 224.600 C 86.386 225.480,86.212 226.830,86.007 227.600 C 84.214 234.304,84.434 234.684,87.995 231.036 C 93.555 225.340,97.696 224.617,101.372 228.698 L 102.943 230.442 102.287 233.121 C 101.925 234.595,101.520 236.719,101.385 237.843 C 101.005 241.022,100.186 241.977,96.015 244.106 C 91.267 246.530,90.952 246.480,89.031 243.000 C 88.667 242.340,87.934 241.080,87.404 240.200 C 86.873 239.320,86.221 238.195,85.955 237.700 C 85.265 236.415,84.902 236.582,84.652 238.300 C 83.594 245.553,84.262 263.621,85.779 268.800 L 86.658 271.800 89.421 271.920 C 93.393 272.093,93.492 272.041,98.252 267.202 L 102.583 262.800 106.991 262.766 C 116.416 262.694,116.408 262.698,116.834 258.085 C 117.013 256.138,117.423 253.747,117.744 252.772 C 118.065 251.797,118.447 250.370,118.593 249.600 C 118.740 248.830,119.229 247.210,119.680 246.000 C 120.132 244.790,120.771 243.080,121.102 242.200 C 122.069 239.621,124.007 235.643,124.419 235.388 C 124.629 235.259,124.800 234.831,124.800 234.438 C 124.800 234.045,125.160 233.398,125.600 233.000 C 126.040 232.602,126.400 232.130,126.400 231.951 C 126.400 231.626,129.580 226.779,130.042 226.400 C 130.176 226.290,131.184 225.120,132.281 223.800 C 133.379 222.480,134.980 220.656,135.839 219.747 C 141.594 213.652,141.511 213.860,139.200 211.354 C 137.227 209.213,137.225 209.023,139.158 207.239 C 141.568 205.014,141.464 204.481,137.929 200.906 C 132.907 195.828,132.621 195.284,132.616 190.800 C 132.608 184.225,135.744 181.027,142.200 181.026 C 146.494 181.025,147.014 181.310,152.179 186.499 C 155.908 190.245,155.831 190.235,158.647 187.300 C 160.275 185.603,160.730 185.654,163.053 187.792 C 165.509 190.054,165.684 190.001,170.000 185.684 C 175.367 180.317,182.212 175.071,186.100 173.345 C 186.925 172.978,187.600 172.526,187.600 172.339 C 187.600 172.153,187.791 172.000,188.025 172.000 C 188.258 172.000,189.473 171.540,190.725 170.979 C 191.976 170.417,193.540 169.715,194.200 169.418 C 196.179 168.527,199.242 167.572,202.000 166.983 C 203.430 166.679,205.230 166.229,206.000 165.985 C 207.664 165.457,216.566 164.735,217.411 165.059 C 218.953 165.651,217.365 167.445,199.271 185.550 C 178.833 206.001,179.873 204.680,182.361 207.028 C 184.107 208.676,184.011 210.016,182.000 212.047 C 181.120 212.936,180.400 213.899,180.400 214.188 C 180.400 214.994,261.991 296.400,262.799 296.400 C 263.186 296.400,263.707 296.153,263.957 295.851 C 264.552 295.135,266.671 294.807,268.856 295.092 C 271.724 295.467,283.040 307.003,283.261 309.777 C 283.636 314.491,283.925 314.034,274.822 323.131 C 262.793 335.152,262.598 335.170,252.881 325.094 L 246.800 318.787 246.800 316.022 C 246.800 313.972,246.973 313.084,247.468 312.589 C 248.075 311.983,248.080 311.826,247.525 310.911 C 246.790 309.700,166.489 229.320,165.718 229.024 C 165.423 228.911,164.511 229.514,163.691 230.364 C 161.115 233.035,160.578 233.134,158.654 231.295 C 157.744 230.425,156.686 229.604,156.303 229.470 C 155.501 229.191,122.400 261.955,122.400 263.029 C 122.400 263.364,123.705 264.931,125.300 266.511 C 126.895 268.090,128.783 270.107,129.496 270.991 L 130.792 272.600 130.796 278.926 C 130.801 286.273,130.705 286.004,134.666 289.826 L 137.600 292.657 137.600 299.668 L 137.600 306.678 139.970 308.939 L 142.341 311.200 151.470 311.205 L 160.600 311.209 164.304 314.805 L 168.008 318.400 172.568 318.400 L 177.128 318.400 179.905 321.187 C 181.431 322.720,182.933 324.277,183.240 324.647 C 183.671 325.165,183.846 327.474,184.000 334.652 L 184.200 343.984 187.500 347.300 L 190.800 350.617 190.800 358.654 L 190.800 366.692 195.865 366.980 C 202.598 367.364,218.159 366.844,220.075 366.171 C 220.886 365.886,222.866 365.528,224.475 365.374 C 226.084 365.220,227.867 364.858,228.437 364.569 C 229.008 364.281,230.448 363.920,231.637 363.768 C 232.827 363.616,234.250 363.267,234.800 362.993 C 235.350 362.719,236.606 362.361,237.591 362.197 C 238.576 362.033,239.746 361.665,240.191 361.379 C 240.636 361.093,241.677 360.735,242.504 360.584 C 243.332 360.433,244.099 360.163,244.210 359.984 C 244.321 359.805,245.084 359.452,245.906 359.199 C 248.245 358.480,258.553 353.517,262.200 351.355 C 263.080 350.833,264.354 350.145,265.032 349.826 C 265.709 349.507,266.496 348.966,266.781 348.623 C 267.065 348.280,267.537 348.000,267.829 348.000 C 268.121 348.000,268.504 347.754,268.680 347.454 C 268.856 347.154,269.540 346.612,270.200 346.249 C 272.048 345.234,272.789 344.708,274.355 343.302 C 275.150 342.588,275.926 342.003,276.079 342.002 C 276.233 342.001,276.815 341.595,277.372 341.100 C 277.929 340.605,279.115 339.570,280.007 338.800 C 283.487 335.795,294.800 324.237,294.800 323.686 C 294.800 323.592,295.258 322.950,295.817 322.258 C 296.376 321.566,297.141 320.584,297.517 320.075 C 297.893 319.566,298.515 318.851,298.900 318.486 C 299.285 318.121,299.600 317.629,299.600 317.392 C 299.600 316.980,299.999 316.388,301.845 314.064 C 302.310 313.479,302.817 312.595,302.972 312.100 C 303.127 311.605,303.404 311.200,303.588 311.200 C 303.771 311.200,304.126 310.705,304.377 310.100 C 304.627 309.495,305.273 308.280,305.813 307.400 C 306.353 306.520,307.063 305.227,307.391 304.527 C 307.719 303.827,308.171 303.142,308.394 303.004 C 308.617 302.866,308.800 302.428,308.800 302.030 C 308.800 301.633,309.133 300.879,309.539 300.354 C 309.945 299.829,310.409 298.860,310.570 298.200 C 310.731 297.540,311.102 296.730,311.394 296.400 C 311.686 296.070,312.127 295.043,312.374 294.117 C 312.620 293.191,312.997 292.326,313.211 292.193 C 313.425 292.061,313.600 291.556,313.600 291.070 C 313.600 290.585,313.934 289.561,314.341 288.794 C 314.749 288.027,315.214 286.680,315.375 285.800 C 315.536 284.920,315.898 283.930,316.180 283.600 C 316.462 283.270,316.794 282.100,316.917 281.000 C 317.040 279.900,317.423 278.460,317.768 277.800 C 318.113 277.140,318.396 275.926,318.398 275.102 C 318.399 274.277,318.744 272.567,319.164 271.302 C 319.583 270.036,320.035 267.290,320.166 265.200 C 320.298 263.110,320.619 260.680,320.880 259.800 C 321.548 257.549,321.553 240.497,320.886 237.640 C 320.609 236.452,320.273 233.842,320.138 231.840 C 320.004 229.838,319.647 227.590,319.344 226.844 C 319.041 226.098,318.690 224.478,318.564 223.244 C 318.437 222.010,317.989 220.157,317.567 219.126 C 317.145 218.095,316.794 216.655,316.787 215.926 C 316.780 215.197,316.523 214.268,316.216 213.863 C 315.909 213.458,315.541 212.433,315.398 211.586 C 315.255 210.740,314.792 209.368,314.369 208.539 C 313.946 207.709,313.600 206.641,313.600 206.164 C 313.600 205.688,313.330 205.074,313.000 204.800 C 312.670 204.526,312.394 204.009,312.387 203.651 C 312.381 203.293,311.932 202.100,311.391 201.000 C 310.850 199.900,310.406 198.797,310.404 198.549 C 310.402 198.301,310.142 197.883,309.826 197.621 C 309.510 197.359,309.138 196.630,309.000 196.000 C 308.862 195.370,308.490 194.641,308.174 194.379 C 307.858 194.117,307.600 193.577,307.600 193.180 C 307.600 192.782,307.331 192.188,307.002 191.859 C 306.672 191.530,306.219 190.842,305.994 190.330 C 305.768 189.819,305.051 188.590,304.400 187.600 C 303.749 186.610,303.051 185.433,302.850 184.984 C 302.648 184.535,302.195 183.927,301.842 183.635 C 301.489 183.342,301.200 182.953,301.200 182.771 C 301.200 182.589,300.615 181.603,299.900 180.579 C 299.185 179.556,298.420 178.426,298.200 178.068 C 297.980 177.711,297.594 177.234,297.343 177.009 C 297.091 176.784,295.662 175.070,294.166 173.200 C 289.399 167.240,285.291 163.071,279.387 158.200 C 275.914 155.334,275.617 155.078,274.883 154.300 C 274.520 153.915,274.063 153.600,273.869 153.600 C 273.525 153.600,271.640 152.200,270.366 150.998 C 270.018 150.669,269.621 150.400,269.484 150.400 C 269.271 150.400,268.011 149.615,265.600 147.978 C 264.641 147.327,263.102 146.470,261.700 145.805 C 260.985 145.466,260.400 145.012,260.400 144.795 C 260.400 144.578,260.064 144.400,259.654 144.400 C 259.244 144.400,258.479 144.065,257.954 143.655 C 257.429 143.245,256.550 142.774,256.000 142.608 C 255.450 142.441,254.730 142.077,254.400 141.797 C 254.070 141.518,253.227 141.167,252.528 141.019 C 251.828 140.870,251.056 140.509,250.813 140.216 C 250.570 139.923,249.766 139.570,249.026 139.431 C 248.286 139.292,247.460 138.914,247.191 138.589 C 246.922 138.265,246.319 137.994,245.851 137.986 C 245.383 137.979,244.280 137.625,243.400 137.200 C 242.520 136.775,241.437 136.421,240.994 136.414 C 240.551 136.406,239.516 136.040,238.696 135.600 C 237.875 135.160,236.707 134.794,236.101 134.786 C 235.496 134.779,234.280 134.425,233.400 134.000 C 232.520 133.575,231.029 133.221,230.087 133.214 C 229.145 133.206,227.705 132.915,226.887 132.566 C 226.069 132.218,223.540 131.766,221.268 131.563 C 218.995 131.360,216.745 130.977,216.268 130.712 C 215.290 130.168,193.925 129.859,190.800 130.342 M267.100 256.795 C 269.611 257.312,273.350 256.914,275.306 255.923 C 276.375 255.381,276.625 256.570,275.819 258.359 C 275.013 260.146,275.114 265.412,275.993 267.441 C 276.737 269.158,276.284 270.381,275.251 269.447 C 273.845 268.174,266.786 268.156,263.499 269.417 C 262.604 269.761,262.565 268.661,263.400 266.662 C 264.181 264.792,264.180 260.154,263.398 258.654 C 262.401 256.744,262.694 255.320,263.953 255.955 C 264.309 256.134,265.725 256.512,267.100 256.795 M308.466 262.279 C 307.796 263.537,307.533 268.093,308.009 270.200 C 308.976 274.482,308.996 275.082,308.151 274.345 C 306.349 272.773,301.641 272.570,296.561 273.845 C 295.362 274.146,295.105 273.162,295.846 271.107 C 296.620 268.956,296.604 265.479,295.808 263.223 C 294.947 260.782,295.392 260.359,298.087 261.059 C 301.318 261.897,306.990 261.489,308.200 260.332 C 308.750 259.806,308.961 261.350,308.466 262.279 M189.400 270.324 C 193.044 274.129,192.999 273.999,192.257 278.683 C 191.152 285.660,191.205 285.580,187.000 286.652 C 180.918 288.202,178.973 288.010,176.625 285.626 L 174.681 283.651 174.952 280.394 C 175.102 278.603,175.486 276.026,175.806 274.669 C 176.126 273.311,176.391 271.537,176.394 270.726 C 176.397 269.915,176.581 268.775,176.803 268.193 L 177.206 267.133 181.903 267.267 L 186.600 267.400 189.400 270.324 M160.320 270.080 C 160.631 270.391,160.800 272.008,160.800 274.675 L 160.800 278.790 159.100 279.885 C 158.165 280.487,157.040 281.183,156.600 281.432 C 156.160 281.680,154.400 282.720,152.688 283.742 C 148.959 285.969,149.377 285.941,147.347 284.099 C 144.864 281.847,144.675 281.281,145.203 277.681 C 146.442 269.234,146.062 269.600,153.588 269.600 C 157.917 269.600,159.988 269.748,160.320 270.080 " stroke="none" fill="#fbfbfb" fill-rule="evenodd"></path><path id="path3" d="M192.800 129.219 C 187.755 129.418,184.891 129.706,183.800 130.122 C 182.920 130.458,180.962 130.846,179.448 130.983 C 177.935 131.120,176.189 131.495,175.568 131.816 C 174.948 132.137,173.976 132.400,173.410 132.400 C 172.843 132.400,171.356 132.760,170.104 133.200 C 168.852 133.640,167.459 134.000,167.008 134.000 C 166.557 134.000,165.516 134.360,164.696 134.800 C 163.875 135.240,162.885 135.600,162.496 135.600 C 162.106 135.600,161.116 135.960,160.296 136.400 C 159.475 136.840,158.575 137.200,158.296 137.200 C 158.016 137.200,157.116 137.560,156.296 138.000 C 155.475 138.440,154.545 138.800,154.230 138.800 C 153.915 138.800,153.414 139.043,153.118 139.340 C 152.821 139.636,151.908 140.100,151.089 140.371 C 150.270 140.641,149.600 141.008,149.600 141.187 C 149.600 141.365,148.961 141.631,148.179 141.778 C 147.397 141.924,146.662 142.293,146.546 142.598 C 146.429 142.902,145.809 143.266,145.169 143.407 C 144.529 143.547,143.869 143.877,143.702 144.140 C 143.536 144.402,142.862 144.854,142.205 145.143 C 140.661 145.823,130.269 152.780,128.246 154.488 C 118.573 162.654,104.400 177.769,104.400 179.919 C 104.400 180.115,104.040 180.602,103.600 181.000 C 103.160 181.398,102.800 181.907,102.800 182.130 C 102.800 182.354,102.501 182.867,102.136 183.271 C 101.452 184.026,100.895 184.910,99.783 187.000 C 99.432 187.660,98.716 188.920,98.191 189.800 C 96.784 192.160,93.200 199.401,93.200 199.885 C 93.200 200.114,92.930 200.526,92.600 200.800 C 92.270 201.074,92.000 201.594,92.000 201.955 C 92.000 202.316,91.640 203.284,91.200 204.104 C 90.760 204.925,90.400 205.915,90.400 206.304 C 90.400 206.694,90.040 207.684,89.600 208.504 C 89.160 209.325,88.800 210.408,88.800 210.910 C 88.800 211.411,88.536 212.199,88.214 212.659 C 87.891 213.119,87.456 214.465,87.247 215.648 C 87.038 216.832,86.590 218.520,86.251 219.400 C 85.912 220.280,85.627 221.684,85.618 222.520 C 85.608 223.356,85.324 224.573,84.987 225.225 C 84.650 225.877,84.277 227.893,84.157 229.705 C 84.038 231.517,83.673 234.254,83.346 235.787 C 82.616 239.206,82.516 257.377,83.209 260.800 C 83.453 262.010,83.816 264.778,84.014 266.951 C 84.214 269.132,84.635 271.299,84.955 271.787 C 85.274 272.274,85.612 273.196,85.707 273.836 L 85.880 275.000 85.940 273.750 C 85.973 273.063,85.739 271.762,85.421 270.860 C 83.884 266.503,82.669 245.956,83.596 240.000 C 83.853 238.350,84.212 235.200,84.395 233.000 C 84.577 230.800,85.000 227.830,85.334 226.400 C 85.668 224.970,86.148 222.900,86.399 221.800 C 87.560 216.723,87.939 215.251,88.612 213.200 C 90.188 208.405,91.954 203.724,93.291 200.800 C 94.848 197.394,97.654 191.797,98.606 190.200 C 99.130 189.320,99.732 188.226,99.944 187.768 C 100.284 187.031,103.179 182.668,105.706 179.082 C 110.722 171.965,118.791 163.218,125.200 157.952 C 126.630 156.776,127.909 155.662,128.043 155.476 C 128.690 154.574,139.284 147.411,143.200 145.229 C 144.850 144.309,146.470 143.398,146.800 143.204 C 148.992 141.915,157.111 138.224,160.000 137.204 C 160.770 136.932,162.390 136.349,163.600 135.909 C 166.686 134.786,170.582 133.634,173.400 133.009 C 174.720 132.716,176.970 132.205,178.400 131.872 C 181.261 131.207,185.588 130.471,189.600 129.967 C 192.894 129.554,213.072 129.564,216.000 129.981 C 220.462 130.615,224.267 131.283,226.800 131.877 C 228.230 132.212,230.273 132.638,231.340 132.825 C 232.407 133.012,234.027 133.422,234.940 133.737 C 235.853 134.053,238.220 134.819,240.200 135.440 C 242.180 136.061,244.250 136.800,244.800 137.082 C 245.350 137.364,246.042 137.596,246.338 137.598 C 246.634 137.599,247.354 137.858,247.938 138.173 C 248.522 138.488,250.080 139.224,251.400 139.809 C 252.720 140.394,254.610 141.251,255.600 141.715 C 258.076 142.875,265.258 146.964,267.552 148.520 C 268.590 149.224,269.791 150.028,270.220 150.306 C 272.941 152.070,274.133 152.966,278.568 156.583 C 284.302 161.260,291.949 169.008,295.560 173.800 C 296.555 175.120,297.479 176.290,297.612 176.400 C 298.144 176.837,304.384 186.021,304.950 187.200 C 305.109 187.530,305.669 188.520,306.196 189.400 C 307.758 192.008,312.400 201.249,312.400 201.750 C 312.400 202.004,312.760 202.884,313.200 203.704 C 313.640 204.525,314.000 205.403,314.000 205.655 C 314.000 205.906,314.336 206.852,314.747 207.756 C 315.916 210.330,318.305 218.596,319.558 224.400 C 321.713 234.379,322.614 249.614,321.606 259.000 C 320.845 266.085,319.983 271.744,319.407 273.439 C 319.073 274.423,318.803 275.627,318.806 276.114 C 318.811 276.934,318.520 277.997,316.320 285.200 C 315.546 287.734,312.234 296.359,311.564 297.586 C 311.380 297.924,310.312 300.090,309.193 302.400 C 308.073 304.710,306.812 307.140,306.390 307.800 C 305.969 308.460,305.323 309.540,304.955 310.200 C 304.587 310.860,303.457 312.639,302.443 314.152 C 301.429 315.666,300.420 317.186,300.200 317.530 C 293.609 327.827,277.045 343.430,265.519 350.200 C 257.769 354.752,249.706 358.788,247.096 359.421 C 246.489 359.568,245.897 359.844,245.779 360.033 C 245.662 360.223,244.809 360.572,243.883 360.808 C 242.957 361.045,241.660 361.480,241.000 361.776 C 240.340 362.072,238.990 362.527,238.000 362.786 C 233.346 364.007,231.653 364.459,229.800 364.976 C 220.592 367.541,205.497 368.472,190.200 367.417 C 188.880 367.326,188.250 367.337,188.800 367.442 C 189.350 367.547,191.006 367.895,192.479 368.216 C 196.168 369.020,208.702 369.010,212.935 368.200 C 214.660 367.870,217.192 367.600,218.562 367.600 C 219.933 367.600,222.392 367.244,224.027 366.809 C 225.662 366.375,227.578 366.015,228.285 366.009 C 228.992 366.004,230.484 365.640,231.600 365.200 C 232.716 364.760,234.118 364.394,234.715 364.386 C 235.312 364.379,236.520 364.025,237.400 363.600 C 238.280 363.175,239.455 362.821,240.011 362.814 C 240.567 362.806,241.377 362.553,241.811 362.251 C 242.245 361.949,243.230 361.569,244.000 361.407 C 244.770 361.244,245.670 360.881,246.000 360.600 C 246.330 360.319,247.230 359.959,248.000 359.800 C 248.770 359.641,249.670 359.281,250.000 359.000 C 250.330 358.719,251.173 358.367,251.872 358.219 C 252.572 358.070,253.350 357.702,253.600 357.400 C 253.850 357.098,254.581 356.736,255.223 356.595 C 255.865 356.454,256.487 356.183,256.604 355.993 C 256.722 355.803,258.119 354.999,259.709 354.208 C 261.299 353.416,263.140 352.421,263.800 351.996 C 264.460 351.572,265.523 350.930,266.162 350.570 C 266.802 350.209,267.522 349.751,267.762 349.552 C 268.003 349.352,268.874 348.747,269.699 348.207 C 273.013 346.037,275.965 343.790,280.400 340.062 C 282.946 337.922,291.852 329.008,294.200 326.249 C 297.387 322.505,300.187 318.805,300.518 317.900 C 300.659 317.515,300.939 317.200,301.139 317.200 C 301.339 317.200,301.727 316.660,302.000 316.000 C 302.273 315.340,302.633 314.800,302.800 314.800 C 302.967 314.800,303.327 314.260,303.600 313.600 C 303.873 312.940,304.243 312.400,304.422 312.400 C 304.600 312.400,304.866 312.021,305.013 311.559 C 305.160 311.096,305.698 310.101,306.210 309.347 C 306.721 308.594,307.522 307.217,307.989 306.289 C 308.457 305.360,309.011 304.330,309.220 304.000 C 309.429 303.670,309.780 302.950,309.999 302.400 C 310.219 301.850,310.548 301.130,310.731 300.800 C 311.960 298.584,312.737 296.827,312.976 295.728 C 313.127 295.028,313.510 294.241,313.826 293.979 C 314.142 293.717,314.400 293.163,314.400 292.750 C 314.400 292.336,314.760 291.325,315.200 290.504 C 315.640 289.684,316.006 288.649,316.014 288.206 C 316.021 287.763,316.375 286.680,316.800 285.800 C 317.225 284.920,317.579 283.655,317.586 282.989 C 317.594 282.323,317.878 281.381,318.218 280.896 C 318.558 280.410,318.943 279.065,319.074 277.907 C 319.205 276.748,319.568 275.291,319.882 274.670 C 320.195 274.048,320.541 272.248,320.649 270.670 C 320.758 269.091,321.151 266.810,321.524 265.600 C 322.541 262.292,322.507 234.274,321.483 231.650 C 321.107 230.687,320.800 228.928,320.800 227.740 C 320.800 226.552,320.440 224.556,320.000 223.304 C 319.560 222.052,319.196 220.481,319.191 219.814 C 319.186 219.146,318.826 217.815,318.391 216.856 C 317.956 215.897,317.596 214.727,317.591 214.256 C 317.586 213.785,317.226 212.615,316.791 211.656 C 316.356 210.697,315.999 209.527,315.997 209.056 C 315.996 208.585,315.637 207.660,315.200 207.000 C 314.763 206.340,314.404 205.476,314.403 205.079 C 314.401 204.683,314.057 203.693,313.637 202.879 C 312.604 200.875,311.341 197.996,311.014 196.900 C 310.867 196.405,310.593 196.000,310.405 196.000 C 310.217 196.000,309.948 195.472,309.806 194.828 C 309.664 194.183,309.302 193.450,309.000 193.200 C 308.698 192.950,308.339 192.232,308.201 191.606 C 308.064 190.979,307.692 190.367,307.376 190.246 C 307.059 190.124,306.800 189.672,306.800 189.241 C 306.800 188.810,306.498 188.155,306.128 187.785 C 305.486 187.143,304.497 185.534,303.669 183.784 C 303.457 183.335,302.995 182.727,302.642 182.435 C 302.289 182.142,302.000 181.725,302.000 181.509 C 302.000 181.131,300.650 179.293,299.398 177.966 C 299.069 177.618,298.800 177.183,298.800 177.000 C 298.800 176.817,298.527 176.382,298.193 176.034 C 297.859 175.685,296.734 174.315,295.693 172.989 C 294.652 171.662,293.407 170.189,292.927 169.715 C 292.446 169.241,291.751 168.391,291.381 167.827 C 291.011 167.262,290.459 166.800,290.154 166.800 C 289.849 166.800,289.600 166.604,289.600 166.364 C 289.600 166.125,288.295 164.688,286.700 163.171 C 285.105 161.655,283.260 159.900,282.600 159.272 C 280.461 157.238,276.445 154.000,276.060 154.000 C 275.854 154.000,275.582 153.730,275.455 153.400 C 275.329 153.070,274.993 152.800,274.709 152.800 C 274.425 152.800,273.968 152.440,273.693 152.000 C 273.418 151.560,272.953 151.200,272.659 151.200 C 272.365 151.200,271.798 150.840,271.400 150.400 C 271.002 149.960,270.540 149.600,270.374 149.600 C 269.899 149.600,266.800 147.491,266.800 147.168 C 266.800 147.009,266.305 146.679,265.700 146.434 C 265.095 146.190,263.880 145.555,263.000 145.023 C 262.120 144.490,260.860 143.776,260.200 143.436 C 259.540 143.095,258.730 142.632,258.400 142.408 C 258.070 142.183,257.350 141.820,256.800 141.601 C 256.250 141.381,255.530 141.048,255.200 140.860 C 254.870 140.672,253.790 140.151,252.800 139.702 C 251.810 139.254,250.170 138.507,249.156 138.043 C 248.142 137.580,247.106 137.200,246.855 137.200 C 246.603 137.200,245.725 136.840,244.904 136.400 C 244.084 135.960,243.094 135.600,242.704 135.600 C 242.315 135.600,241.325 135.240,240.504 134.800 C 239.684 134.360,238.595 134.000,238.086 134.000 C 237.577 134.000,236.657 133.740,236.043 133.422 C 235.428 133.104,233.952 132.720,232.763 132.568 C 231.573 132.416,230.128 132.053,229.552 131.762 C 228.975 131.471,227.265 131.109,225.752 130.957 C 224.238 130.805,222.280 130.427,221.400 130.117 C 220.024 129.632,204.851 128.702,201.200 128.879 C 200.650 128.905,196.870 129.059,192.800 129.219 M210.000 165.974 C 209.010 166.121,207.624 166.547,206.920 166.921 C 206.216 167.294,205.046 167.601,204.320 167.602 C 203.594 167.604,202.460 167.898,201.800 168.257 C 201.140 168.615,199.722 169.057,198.649 169.238 C 197.576 169.420,196.392 169.845,196.018 170.184 C 195.643 170.523,194.794 170.800,194.130 170.800 C 193.432 170.800,192.619 171.137,192.200 171.600 C 191.802 172.040,191.127 172.400,190.701 172.400 C 190.275 172.400,189.469 172.760,188.909 173.200 C 188.350 173.640,187.646 174.000,187.346 174.000 C 187.046 174.000,186.440 174.360,186.000 174.800 C 185.560 175.240,184.900 175.600,184.534 175.600 C 184.167 175.600,183.582 175.869,183.234 176.198 C 181.662 177.681,180.031 178.800,179.442 178.800 C 179.089 178.800,178.800 179.041,178.800 179.336 C 178.800 179.630,178.350 180.077,177.800 180.327 C 177.250 180.578,176.800 180.967,176.800 181.191 C 176.800 181.416,176.621 181.600,176.402 181.600 C 176.183 181.600,173.895 183.680,171.318 186.222 C 166.036 191.431,165.704 191.544,163.278 188.968 C 160.598 186.122,161.088 185.841,151.551 195.688 C 146.848 200.545,142.871 204.852,142.713 205.260 C 142.555 205.668,141.790 206.585,141.013 207.298 C 139.239 208.926,139.236 209.763,141.000 211.426 C 142.838 213.159,142.807 213.308,140.000 216.231 C 138.680 217.606,137.600 218.988,137.600 219.302 C 137.600 219.617,136.610 220.913,135.400 222.182 C 134.190 223.452,133.200 224.566,133.200 224.658 C 133.200 224.751,132.570 225.457,131.800 226.227 C 131.030 226.997,130.400 227.746,130.400 227.892 C 130.400 228.269,128.263 231.372,127.890 231.537 C 127.720 231.612,127.315 232.242,126.990 232.937 C 126.665 233.631,125.860 235.186,125.200 236.392 C 124.540 237.598,124.000 238.788,124.000 239.038 C 124.000 239.288,123.640 239.950,123.200 240.509 C 122.760 241.069,122.400 241.879,122.400 242.309 C 122.400 242.740,122.040 243.550,121.600 244.109 C 121.122 244.717,120.800 245.732,120.800 246.632 C 120.800 247.460,120.524 248.441,120.188 248.814 C 119.851 249.186,119.470 250.460,119.341 251.645 C 119.212 252.830,118.749 254.427,118.312 255.193 C 117.499 256.618,116.729 262.038,117.226 262.841 C 117.371 263.077,117.576 261.933,117.681 260.299 C 117.808 258.313,118.093 257.075,118.541 256.564 C 118.909 256.144,125.220 249.745,132.564 242.345 C 139.908 234.945,146.030 228.537,146.167 228.104 C 146.363 227.488,145.584 226.487,142.573 223.486 C 138.240 219.167,138.197 218.999,140.818 216.631 C 142.904 214.747,142.494 214.561,147.666 219.743 C 154.349 226.439,152.558 226.834,163.054 216.346 C 167.974 211.429,172.000 207.236,172.000 207.027 C 172.000 206.818,168.605 203.216,164.456 199.023 C 157.527 192.020,156.965 191.348,157.556 190.758 C 157.910 190.404,158.629 189.572,159.153 188.909 C 160.343 187.403,161.230 187.571,163.156 189.666 C 163.932 190.510,164.782 191.200,165.045 191.200 C 165.308 191.200,167.497 193.163,169.909 195.563 C 175.248 200.873,172.333 202.522,191.453 183.377 C 199.814 175.005,207.273 167.783,208.028 167.328 C 209.526 166.426,214.253 165.885,216.000 166.416 C 216.550 166.583,216.789 166.738,216.531 166.760 C 216.273 166.782,207.768 175.089,197.631 185.221 C 177.072 205.769,177.920 204.656,180.800 207.304 C 182.543 208.907,182.857 210.201,181.600 210.600 C 181.160 210.740,180.800 211.100,180.800 211.400 C 180.800 211.700,180.440 212.060,180.000 212.200 C 179.560 212.340,179.200 212.802,179.200 213.227 C 179.200 213.652,178.990 214.000,178.733 214.000 C 178.477 214.000,178.378 214.112,178.515 214.248 C 178.921 214.655,182.768 210.270,182.785 209.381 C 182.793 208.931,182.080 207.859,181.200 207.000 C 180.320 206.141,179.600 205.160,179.600 204.820 C 179.600 204.481,188.083 195.718,198.452 185.348 C 209.600 174.198,217.192 166.310,217.029 166.046 C 216.731 165.565,213.008 165.527,210.000 165.974 M138.249 244.609 C 128.872 253.999,121.200 261.887,121.200 262.139 C 121.200 262.390,128.896 254.902,138.302 245.498 C 147.708 236.094,155.715 228.400,156.097 228.400 C 156.478 228.400,157.467 229.120,158.295 229.999 C 160.229 232.055,160.733 232.016,163.400 229.600 C 164.615 228.500,165.338 227.600,165.008 227.600 C 164.677 227.600,164.182 227.960,163.907 228.400 C 163.632 228.840,163.193 229.200,162.931 229.200 C 162.668 229.200,162.340 229.560,162.200 230.000 C 161.815 231.212,160.414 230.974,158.817 229.427 C 155.885 226.586,157.268 225.566,138.249 244.609 M86.026 275.892 C 86.012 276.382,86.259 277.462,86.576 278.292 C 86.893 279.121,87.232 280.160,87.330 280.600 C 87.469 281.229,87.511 281.186,87.527 280.400 C 87.538 279.850,87.211 278.410,86.800 277.200 C 86.376 275.952,86.041 275.386,86.026 275.892 M87.626 282.120 C 87.612 282.516,87.846 283.326,88.147 283.920 C 88.447 284.514,88.809 285.644,88.952 286.431 C 89.094 287.217,89.493 288.207,89.838 288.631 C 90.454 289.386,90.460 289.385,90.183 288.600 C 90.028 288.160,89.719 287.260,89.496 286.600 C 88.256 282.934,87.649 281.479,87.626 282.120 M90.828 291.400 C 90.828 291.620,91.086 292.250,91.400 292.800 C 91.714 293.350,91.972 293.620,91.972 293.400 C 91.972 293.180,91.714 292.550,91.400 292.000 C 91.086 291.450,90.828 291.180,90.828 291.400 M92.003 294.415 C 92.004 294.737,92.363 295.540,92.800 296.200 C 93.819 297.739,93.819 297.399,92.800 295.400 C 92.360 294.537,92.001 294.094,92.003 294.415 M264.800 296.200 C 264.250 296.523,263.485 296.901,263.100 297.040 C 262.715 297.179,262.400 297.465,262.400 297.676 C 262.400 297.886,259.610 300.826,256.199 304.207 C 248.490 311.851,245.989 316.165,248.200 318.000 C 248.530 318.274,248.800 318.664,248.800 318.866 C 248.800 319.069,250.676 321.099,252.968 323.377 C 255.260 325.656,257.624 328.257,258.220 329.159 C 259.484 331.068,261.368 331.774,264.054 331.345 C 265.590 331.099,266.447 330.398,272.736 324.236 C 282.192 314.973,282.800 314.182,282.800 311.139 L 282.800 308.751 278.900 304.722 C 269.825 295.348,268.062 294.282,264.800 296.200 M269.291 296.744 C 270.094 297.154,271.414 298.099,272.223 298.844 C 275.131 301.522,280.800 307.299,280.800 307.584 C 280.800 307.745,281.160 308.202,281.600 308.600 C 282.952 309.823,282.707 312.768,281.100 314.624 C 280.051 315.835,268.054 327.869,265.566 330.205 C 264.431 331.271,260.226 331.013,259.693 329.845 C 259.286 328.950,259.791 328.356,267.790 320.325 C 275.266 312.819,276.270 311.664,275.909 310.980 C 275.682 310.551,272.784 307.452,269.470 304.093 L 263.444 297.985 264.822 297.012 C 266.498 295.828,267.390 295.775,269.291 296.744 M93.600 297.898 C 93.600 298.609,98.463 308.047,99.884 310.096 C 100.608 311.139,101.200 312.119,101.200 312.274 C 101.200 312.602,103.163 315.549,103.900 316.329 C 104.175 316.619,104.400 316.997,104.400 317.167 C 104.400 317.338,104.715 317.851,105.100 318.308 C 105.485 318.765,106.196 319.648,106.681 320.270 C 111.043 325.867,113.004 328.193,115.392 330.600 C 118.461 333.694,118.180 333.052,114.954 329.600 C 111.570 325.980,103.200 315.337,103.200 314.655 C 103.200 314.519,102.480 313.372,101.601 312.104 C 100.721 310.837,100.001 309.634,100.001 309.431 C 100.000 309.229,99.738 308.774,99.419 308.421 C 99.099 308.067,97.659 305.458,96.219 302.621 C 94.778 299.785,93.600 297.660,93.600 297.898 M123.442 338.433 C 124.296 339.112,125.085 339.796,125.197 339.955 C 125.309 340.113,126.120 340.762,127.000 341.397 C 128.957 342.808,128.203 342.018,124.969 339.268 C 123.632 338.130,122.392 337.200,122.214 337.200 C 122.036 337.200,122.588 337.755,123.442 338.433 M129.046 342.976 C 129.178 343.319,129.412 343.600,129.567 343.600 C 129.722 343.600,130.198 343.915,130.625 344.300 C 131.831 345.389,134.318 347.200,134.606 347.200 C 134.749 347.200,135.616 347.795,136.533 348.522 C 137.450 349.249,138.650 350.063,139.200 350.331 C 139.750 350.599,141.370 351.528,142.800 352.396 C 145.197 353.852,152.113 357.376,155.718 358.980 C 156.553 359.351,157.453 359.567,157.718 359.459 C 158.044 359.327,158.017 359.253,157.635 359.232 C 156.991 359.196,144.023 352.785,142.200 351.602 C 141.540 351.173,140.370 350.452,139.600 350.000 C 136.862 348.391,133.050 345.757,130.503 343.713 C 129.570 342.965,128.914 342.633,129.046 342.976 M159.600 360.400 C 160.370 360.822,161.270 361.170,161.600 361.174 C 161.930 361.179,161.415 360.826,160.456 360.391 C 158.250 359.390,157.765 359.395,159.600 360.400 M163.346 361.802 C 163.976 362.131,164.696 362.394,164.946 362.386 C 165.600 362.365,163.517 361.231,162.800 361.217 C 162.470 361.210,162.716 361.474,163.346 361.802 M168.200 363.407 C 169.740 363.951,171.450 364.376,172.000 364.352 C 172.809 364.316,172.847 364.273,172.200 364.127 C 171.760 364.027,170.364 363.598,169.098 363.173 C 167.833 362.748,166.483 362.404,166.098 362.408 C 165.714 362.413,166.660 362.862,168.200 363.407 M174.011 364.982 C 174.568 365.285,176.427 365.728,178.144 365.967 C 179.860 366.206,181.745 366.495,182.332 366.610 C 183.366 366.812,183.370 366.805,182.463 366.408 C 181.947 366.183,180.507 365.885,179.263 365.746 C 178.018 365.608,176.393 365.248,175.651 364.947 C 173.855 364.219,172.655 364.244,174.011 364.982 M184.305 367.083 C 184.802 367.179,185.522 367.175,185.905 367.075 C 186.287 366.975,185.880 366.896,185.000 366.901 C 184.120 366.905,183.807 366.987,184.305 367.083 " stroke="none" fill="#659aac" fill-rule="evenodd"></path><path id="path4" d="M189.200 129.999 C 185.613 130.457,181.177 131.227,178.400 131.872 C 176.970 132.205,174.720 132.716,173.400 133.009 C 170.582 133.634,166.686 134.786,163.600 135.909 C 162.390 136.349,160.770 136.932,160.000 137.204 C 157.111 138.224,148.992 141.915,146.800 143.204 C 146.470 143.398,144.850 144.309,143.200 145.229 C 139.284 147.411,128.690 154.574,128.043 155.476 C 127.909 155.662,126.630 156.776,125.200 157.952 C 118.791 163.218,110.722 171.965,105.706 179.082 C 103.179 182.668,100.284 187.031,99.944 187.768 C 99.732 188.226,99.130 189.320,98.606 190.200 C 97.654 191.797,94.848 197.394,93.291 200.800 C 91.954 203.724,90.188 208.405,88.612 213.200 C 87.808 215.648,87.070 218.662,85.168 227.274 C 84.332 231.054,84.144 234.605,84.801 234.199 C 85.022 234.063,85.092 233.510,84.957 232.971 C 84.822 232.432,85.012 231.069,85.381 229.943 C 85.749 228.816,86.200 226.565,86.382 224.941 C 86.564 223.316,86.895 221.765,87.118 221.493 C 87.341 221.222,87.656 219.920,87.819 218.600 C 87.982 217.280,88.346 215.840,88.628 215.400 C 88.910 214.960,89.265 213.923,89.416 213.096 C 89.567 212.268,90.030 210.925,90.445 210.111 C 90.860 209.297,91.200 208.253,91.200 207.792 C 91.200 207.330,91.464 206.604,91.787 206.176 C 92.110 205.749,92.386 205.130,92.400 204.800 C 92.414 204.470,92.868 203.300,93.409 202.200 C 93.950 201.100,94.394 199.997,94.396 199.749 C 94.398 199.501,94.665 199.078,94.989 198.809 C 95.314 198.540,95.694 197.708,95.834 196.960 C 95.974 196.212,96.222 195.600,96.384 195.600 C 96.546 195.600,96.977 194.925,97.342 194.100 C 98.383 191.746,100.695 187.579,101.379 186.823 C 101.721 186.446,102.000 186.023,102.000 185.884 C 102.000 185.551,106.242 179.317,107.453 177.869 C 107.974 177.247,108.400 176.587,108.400 176.401 C 108.400 176.215,109.075 175.353,109.900 174.486 C 110.725 173.618,112.120 172.044,113.000 170.987 C 115.353 168.163,121.818 161.679,124.775 159.178 C 126.192 157.980,127.743 156.640,128.222 156.200 C 129.126 155.370,129.704 154.954,131.900 153.551 C 132.615 153.095,133.200 152.559,133.200 152.360 C 133.200 152.162,133.461 152.000,133.780 152.000 C 134.099 152.000,134.504 151.754,134.680 151.454 C 134.856 151.154,135.609 150.569,136.352 150.154 C 138.870 148.750,139.308 148.473,139.554 148.128 C 139.689 147.939,140.250 147.553,140.800 147.271 C 144.313 145.470,145.021 145.076,145.200 144.828 C 145.488 144.427,152.921 140.800,153.454 140.800 C 153.700 140.800,154.110 140.549,154.365 140.242 C 154.620 139.935,155.434 139.570,156.174 139.431 C 156.914 139.292,157.724 138.933,157.973 138.633 C 158.222 138.333,159.215 137.969,160.180 137.824 C 161.145 137.679,162.151 137.300,162.416 136.980 C 162.681 136.661,163.374 136.400,163.955 136.400 C 164.536 136.400,165.684 136.040,166.504 135.600 C 167.325 135.160,168.454 134.800,169.011 134.800 C 169.569 134.800,170.695 134.513,171.513 134.163 C 172.331 133.813,174.239 133.365,175.754 133.167 C 177.269 132.970,178.730 132.624,179.001 132.399 C 179.272 132.174,181.431 131.806,183.798 131.582 C 186.164 131.358,188.483 130.955,188.950 130.687 C 190.174 129.986,215.041 129.994,216.268 130.697 C 216.745 130.970,218.995 131.360,221.268 131.563 C 223.540 131.766,226.069 132.218,226.887 132.566 C 227.705 132.915,229.145 133.206,230.087 133.214 C 231.029 133.221,232.520 133.575,233.400 134.000 C 234.280 134.425,235.496 134.779,236.101 134.786 C 236.707 134.794,237.875 135.160,238.696 135.600 C 239.516 136.040,240.551 136.406,240.994 136.414 C 241.437 136.421,242.520 136.775,243.400 137.200 C 244.280 137.625,245.383 137.979,245.851 137.986 C 246.319 137.994,246.922 138.265,247.191 138.589 C 247.460 138.914,248.286 139.292,249.026 139.431 C 249.766 139.570,250.570 139.923,250.813 140.216 C 251.056 140.509,251.828 140.870,252.528 141.019 C 253.227 141.167,254.070 141.518,254.400 141.797 C 254.730 142.077,255.450 142.441,256.000 142.608 C 256.550 142.774,257.429 143.245,257.954 143.655 C 258.479 144.065,259.244 144.400,259.654 144.400 C 260.064 144.400,260.400 144.578,260.400 144.795 C 260.400 145.012,260.985 145.466,261.700 145.805 C 263.102 146.470,264.641 147.327,265.600 147.978 C 268.011 149.615,269.271 150.400,269.484 150.400 C 269.621 150.400,270.018 150.669,270.366 150.998 C 271.640 152.200,273.525 153.600,273.869 153.600 C 274.063 153.600,274.520 153.915,274.883 154.300 C 275.617 155.078,275.914 155.334,279.387 158.200 C 285.291 163.071,289.399 167.240,294.166 173.200 C 295.662 175.070,297.091 176.784,297.343 177.009 C 297.594 177.234,297.980 177.711,298.200 178.068 C 298.420 178.426,299.185 179.556,299.900 180.579 C 300.615 181.603,301.200 182.589,301.200 182.771 C 301.200 182.953,301.489 183.342,301.842 183.635 C 302.195 183.927,302.648 184.535,302.850 184.984 C 303.051 185.433,303.749 186.610,304.400 187.600 C 305.051 188.590,305.768 189.819,305.994 190.330 C 306.219 190.842,306.672 191.530,307.002 191.859 C 307.331 192.188,307.600 192.782,307.600 193.180 C 307.600 193.577,307.858 194.117,308.174 194.379 C 308.490 194.641,308.862 195.370,309.000 196.000 C 309.138 196.630,309.510 197.359,309.826 197.621 C 310.142 197.883,310.402 198.301,310.404 198.549 C 310.406 198.797,310.850 199.900,311.391 201.000 C 311.932 202.100,312.381 203.293,312.387 203.651 C 312.394 204.009,312.670 204.526,313.000 204.800 C 313.330 205.074,313.600 205.688,313.600 206.164 C 313.600 206.641,313.946 207.709,314.369 208.539 C 314.792 209.368,315.255 210.740,315.398 211.586 C 315.541 212.433,315.909 213.458,316.216 213.863 C 316.523 214.268,316.780 215.197,316.787 215.926 C 316.794 216.655,317.145 218.095,317.567 219.126 C 317.989 220.157,318.437 222.010,318.564 223.244 C 318.690 224.478,319.041 226.098,319.344 226.844 C 319.647 227.590,320.004 229.838,320.138 231.840 C 320.273 233.842,320.609 236.452,320.886 237.640 C 321.553 240.497,321.548 257.549,320.880 259.800 C 320.619 260.680,320.298 263.110,320.166 265.200 C 320.035 267.290,319.583 270.036,319.164 271.302 C 318.744 272.567,318.399 274.277,318.398 275.102 C 318.396 275.926,318.113 277.140,317.768 277.800 C 317.423 278.460,317.040 279.900,316.917 281.000 C 316.794 282.100,316.462 283.270,316.180 283.600 C 315.898 283.930,315.536 284.920,315.375 285.800 C 315.214 286.680,314.749 288.027,314.341 288.794 C 313.934 289.561,313.600 290.585,313.600 291.070 C 313.600 291.556,313.425 292.061,313.211 292.193 C 312.997 292.326,312.620 293.191,312.374 294.117 C 312.127 295.043,311.686 296.070,311.394 296.400 C 311.102 296.730,310.731 297.540,310.570 298.200 C 310.409 298.860,309.945 299.829,309.539 300.354 C 309.133 300.879,308.800 301.633,308.800 302.030 C 308.800 302.428,308.617 302.866,308.394 303.004 C 308.171 303.142,307.719 303.827,307.391 304.527 C 307.063 305.227,306.353 306.520,305.813 307.400 C 305.273 308.280,304.627 309.495,304.377 310.100 C 304.126 310.705,303.771 311.200,303.588 311.200 C 303.404 311.200,303.127 311.605,302.972 312.100 C 302.817 312.595,302.310 313.479,301.845 314.064 C 299.999 316.388,299.600 316.980,299.600 317.392 C 299.600 317.629,299.285 318.121,298.900 318.486 C 298.515 318.851,297.893 319.566,297.517 320.075 C 297.141 320.584,296.376 321.566,295.817 322.258 C 295.258 322.950,294.800 323.592,294.800 323.686 C 294.800 324.237,283.487 335.795,280.007 338.800 C 279.115 339.570,277.929 340.605,277.372 341.100 C 276.815 341.595,276.233 342.001,276.079 342.002 C 275.926 342.003,275.150 342.588,274.355 343.302 C 272.789 344.708,272.048 345.234,270.200 346.249 C 269.540 346.612,268.856 347.154,268.680 347.454 C 268.504 347.754,268.121 348.000,267.829 348.000 C 267.537 348.000,267.065 348.280,266.781 348.623 C 266.496 348.966,265.709 349.507,265.032 349.826 C 264.354 350.145,263.080 350.833,262.200 351.355 C 258.553 353.517,248.245 358.480,245.906 359.199 C 245.084 359.452,244.321 359.805,244.210 359.984 C 244.099 360.163,243.332 360.433,242.504 360.584 C 241.677 360.735,240.636 361.093,240.191 361.379 C 239.746 361.665,238.576 362.033,237.591 362.197 C 236.606 362.361,235.350 362.719,234.800 362.993 C 234.250 363.267,232.827 363.616,231.637 363.768 C 230.448 363.920,229.008 364.281,228.437 364.569 C 227.867 364.858,226.084 365.220,224.475 365.374 C 222.866 365.528,220.796 365.928,219.875 366.263 C 218.512 366.759,215.654 366.884,204.529 366.936 C 190.029 367.004,187.151 367.518,199.316 367.867 C 209.818 368.168,222.741 366.942,229.800 364.976 C 231.653 364.459,233.346 364.007,238.000 362.786 C 238.990 362.527,240.340 362.072,241.000 361.776 C 241.660 361.480,242.957 361.045,243.883 360.808 C 244.809 360.572,245.662 360.223,245.779 360.033 C 245.897 359.844,246.489 359.568,247.096 359.421 C 249.706 358.788,257.769 354.752,265.519 350.200 C 277.045 343.430,293.609 327.827,300.200 317.530 C 300.420 317.186,301.429 315.666,302.443 314.152 C 303.457 312.639,304.587 310.860,304.955 310.200 C 305.323 309.540,305.969 308.460,306.390 307.800 C 306.812 307.140,308.073 304.710,309.193 302.400 C 310.312 300.090,311.380 297.924,311.564 297.586 C 312.234 296.359,315.546 287.734,316.320 285.200 C 318.520 277.997,318.811 276.934,318.806 276.114 C 318.803 275.627,319.073 274.423,319.407 273.439 C 319.983 271.744,320.845 266.085,321.606 259.000 C 322.614 249.614,321.713 234.379,319.558 224.400 C 318.330 218.712,315.892 210.279,314.747 207.756 C 314.336 206.852,314.000 205.906,314.000 205.655 C 314.000 205.403,313.640 204.525,313.200 203.704 C 312.760 202.884,312.400 202.004,312.400 201.750 C 312.400 201.249,307.758 192.008,306.196 189.400 C 305.669 188.520,305.109 187.530,304.950 187.200 C 304.384 186.021,298.144 176.837,297.612 176.400 C 297.479 176.290,296.555 175.120,295.560 173.800 C 291.949 169.008,284.302 161.260,278.568 156.583 C 274.133 152.966,272.941 152.070,270.220 150.306 C 269.791 150.028,268.590 149.224,267.552 148.520 C 265.258 146.964,258.076 142.875,255.600 141.715 C 254.610 141.251,252.720 140.394,251.400 139.809 C 250.080 139.224,248.522 138.488,247.938 138.173 C 247.354 137.858,246.634 137.599,246.338 137.598 C 246.042 137.596,245.350 137.364,244.800 137.082 C 244.250 136.800,242.180 136.061,240.200 135.440 C 238.220 134.819,235.853 134.053,234.940 133.737 C 234.027 133.422,232.407 133.012,231.340 132.825 C 230.273 132.638,228.230 132.212,226.800 131.877 C 224.267 131.283,220.462 130.615,216.000 129.981 C 213.300 129.596,192.237 129.611,189.200 129.999 M211.200 165.222 C 209.110 165.386,206.770 165.725,206.000 165.975 C 205.230 166.225,203.430 166.679,202.000 166.983 C 199.242 167.572,196.179 168.527,194.200 169.418 C 193.540 169.715,191.976 170.417,190.725 170.979 C 189.473 171.540,188.258 172.000,188.025 172.000 C 187.791 172.000,187.600 172.153,187.600 172.339 C 187.600 172.526,186.925 172.978,186.100 173.345 C 182.212 175.071,175.367 180.317,170.000 185.684 C 165.684 190.001,165.509 190.054,163.053 187.792 C 160.730 185.654,160.275 185.603,158.647 187.300 C 155.831 190.235,155.908 190.245,152.179 186.499 C 147.014 181.310,146.494 181.025,142.200 181.026 C 135.744 181.027,132.608 184.225,132.616 190.800 C 132.621 195.284,132.907 195.828,137.929 200.906 C 141.464 204.481,141.568 205.014,139.158 207.239 C 137.225 209.023,137.227 209.213,139.200 211.354 C 141.511 213.860,141.594 213.652,135.839 219.747 C 134.980 220.656,133.379 222.480,132.281 223.800 C 131.184 225.120,130.176 226.290,130.042 226.400 C 129.580 226.779,126.400 231.626,126.400 231.951 C 126.400 232.130,126.040 232.602,125.600 233.000 C 125.160 233.398,124.800 234.045,124.800 234.438 C 124.800 234.831,124.629 235.259,124.419 235.388 C 124.007 235.643,122.069 239.621,121.102 242.200 C 120.771 243.080,120.132 244.790,119.680 246.000 C 119.229 247.210,118.740 248.830,118.593 249.600 C 118.447 250.370,118.065 251.797,117.744 252.772 C 117.423 253.747,117.012 256.152,116.831 258.117 C 116.622 260.385,116.300 261.828,115.951 262.067 C 115.533 262.352,115.594 262.412,116.200 262.317 C 116.882 262.209,117.037 261.779,117.252 259.395 C 117.401 257.743,117.832 256.028,118.305 255.200 C 118.746 254.430,119.212 252.830,119.341 251.645 C 119.470 250.460,119.851 249.186,120.188 248.814 C 120.524 248.441,120.800 247.460,120.800 246.632 C 120.800 245.732,121.122 244.717,121.600 244.109 C 122.040 243.550,122.400 242.740,122.400 242.309 C 122.400 241.879,122.760 241.069,123.200 240.509 C 123.640 239.950,124.000 239.288,124.000 239.038 C 124.000 238.788,124.540 237.598,125.200 236.392 C 125.860 235.186,126.665 233.631,126.990 232.937 C 127.315 232.242,127.720 231.612,127.890 231.537 C 128.263 231.372,130.400 228.269,130.400 227.892 C 130.400 227.746,131.030 226.997,131.800 226.227 C 132.570 225.457,133.200 224.751,133.200 224.658 C 133.200 224.566,134.190 223.452,135.400 222.182 C 136.610 220.913,137.600 219.617,137.600 219.302 C 137.600 218.988,138.680 217.606,140.000 216.231 C 142.807 213.308,142.838 213.159,141.000 211.426 C 139.206 209.734,139.238 209.030,141.200 207.107 C 143.251 205.097,143.529 205.710,138.035 200.134 C 132.790 194.811,132.291 193.718,132.942 188.974 C 133.780 182.857,141.413 179.299,146.821 182.504 C 148.671 183.600,154.903 189.704,155.292 190.800 C 155.449 191.243,156.121 190.807,157.852 189.139 C 160.529 186.560,160.997 186.545,163.274 188.963 C 165.704 191.545,166.035 191.432,171.318 186.222 C 173.895 183.680,176.183 181.600,176.402 181.600 C 176.621 181.600,176.800 181.416,176.800 181.191 C 176.800 180.967,177.250 180.578,177.800 180.327 C 178.350 180.077,178.800 179.630,178.800 179.336 C 178.800 179.041,179.089 178.800,179.442 178.800 C 180.031 178.800,181.662 177.681,183.234 176.198 C 183.582 175.869,184.167 175.600,184.534 175.600 C 184.900 175.600,185.560 175.240,186.000 174.800 C 186.440 174.360,187.046 174.000,187.346 174.000 C 187.646 174.000,188.350 173.640,188.909 173.200 C 189.469 172.760,190.275 172.400,190.701 172.400 C 191.127 172.400,191.802 172.040,192.200 171.600 C 192.619 171.137,193.432 170.800,194.130 170.800 C 194.794 170.800,195.643 170.523,196.018 170.184 C 196.392 169.845,197.576 169.420,198.649 169.238 C 199.722 169.057,201.140 168.615,201.800 168.257 C 202.460 167.898,203.592 167.604,204.316 167.602 C 205.040 167.601,206.334 167.242,207.193 166.804 C 209.163 165.799,216.499 165.190,216.994 165.990 C 217.203 166.329,211.160 172.638,198.452 185.348 C 188.083 195.718,179.600 204.481,179.600 204.820 C 179.600 205.160,180.320 206.141,181.200 207.000 C 182.080 207.859,182.800 208.939,182.800 209.400 C 182.800 209.861,182.080 210.941,181.200 211.800 C 180.320 212.659,179.600 213.644,179.600 213.987 C 179.600 214.733,261.669 296.940,262.609 297.135 C 262.967 297.209,263.604 296.958,264.026 296.577 C 265.246 295.472,268.482 295.338,270.074 296.325 C 271.247 297.052,279.811 305.423,281.979 307.961 C 283.469 309.705,283.142 313.098,281.257 315.464 C 277.199 320.557,265.818 331.063,264.054 331.345 C 261.368 331.774,259.484 331.068,258.220 329.159 C 257.624 328.257,255.260 325.656,252.968 323.377 C 250.676 321.099,248.800 319.069,248.800 318.866 C 248.800 318.664,248.530 318.274,248.200 318.000 C 247.333 317.280,247.461 315.258,248.498 313.300 L 249.399 311.600 207.600 269.800 C 184.611 246.810,165.640 228.000,165.442 228.000 C 165.245 228.000,164.217 228.810,163.159 229.800 C 160.799 232.007,160.207 232.031,158.295 229.999 C 157.467 229.120,156.477 228.400,156.093 228.400 C 154.793 228.400,121.624 262.072,122.011 263.000 C 122.289 263.669,122.348 263.687,122.372 263.109 C 122.419 261.954,155.476 229.182,156.303 229.470 C 156.686 229.604,157.744 230.425,158.654 231.295 C 160.578 233.134,161.115 233.035,163.691 230.364 C 164.511 229.514,165.423 228.911,165.718 229.024 C 166.489 229.320,246.790 309.700,247.525 310.911 C 248.080 311.826,248.075 311.983,247.468 312.589 C 246.973 313.084,246.800 313.972,246.800 316.022 L 246.800 318.787 252.881 325.094 C 262.598 335.170,262.793 335.152,274.822 323.131 C 283.925 314.034,283.636 314.491,283.261 309.777 C 283.040 307.003,271.724 295.467,268.856 295.092 C 266.671 294.807,264.552 295.135,263.957 295.851 C 263.707 296.153,263.186 296.400,262.799 296.400 C 261.991 296.400,180.400 214.994,180.400 214.188 C 180.400 213.899,181.120 212.936,182.000 212.047 C 184.011 210.016,184.107 208.676,182.361 207.028 C 179.873 204.680,178.833 206.001,199.271 185.550 C 219.250 165.559,220.047 164.565,215.867 164.862 C 215.390 164.895,213.290 165.057,211.200 165.222 M84.223 236.362 C 82.090 239.815,83.903 272.000,86.231 272.000 C 86.601 272.000,86.491 271.175,85.818 268.900 C 84.193 263.412,83.516 242.675,84.799 237.703 C 85.116 236.475,84.722 235.556,84.223 236.362 " stroke="none" fill="#9db8c0" fill-rule="evenodd"></path></g></svg>